<?xml version="1.0" standalone="no"?><!DOCTYPE svg PUBLIC "-//W3C//DTD SVG 1.1//EN" "http://www.w3.org/Graphics/SVG/1.1/DTD/svg11.dtd"><svg t="1719287847873" class="icon" viewBox="0 0 1024 1024" version="1.1" xmlns="http://www.w3.org/2000/svg" p-id="46433" xmlns:xlink="http://www.w3.org/1999/xlink" width="256" height="256"><path d="M198.895 0.649h625.271a199.066 199.066 0 0 1 198.964 198.74v624.64a199.066 199.066 0 0 1-198.964 198.776H198.895A199.066 199.066 0 0 1 0.017 824.013v-624.64A199.066 199.066 0 0 1 198.98 0.63z m0 0" fill="#306CFF" p-id="46434"></path><path d="M435.934 561.05h48.316v255.522h-85.334a146.773 146.773 0 0 1-27.306-1.144 81.323 81.323 0 0 1-47.19-31.232 89.958 89.958 0 0 1-17.066-39.253 128.7 128.7 0 0 1 0-44.373 100.454 100.454 0 0 1 25.002-43.162 83.285 83.285 0 0 1 35.84-21.572 55.808 55.808 0 0 1 16.487-2.85h50.585c0.563-24.406 0.563-48.265 0.563-72.107z m-53.436 115.83a47.923 47.923 0 0 0-23.313 21.572 88.969 88.969 0 0 0-5.12 27.307 56.695 56.695 0 0 0 9.66 31.795 40.346 40.346 0 0 0 34.133 17.596h38.656V673.5h-43.196a24.166 24.166 0 0 0-10.803 3.414z m127.898-40.96h48.247v119.245a19.422 19.422 0 0 0 19.9 20.48h51.2V636.518h48.367v180.566H561.015a57.498 57.498 0 0 1-34.133-14.2 48.606 48.606 0 0 1-15.923-38.041c-0.563-43.145-0.563-85.743-0.563-128.888z m0 0" fill="#306CFF" p-id="46435"></path><path d="M414.908 138.633a57.19 57.19 0 0 1 42.666 9.66 106.837 106.837 0 0 1 39.8 55.654 158.447 158.447 0 0 1-2.27 106.188 114.773 114.773 0 0 1-29.56 43.725 60.28 60.28 0 0 1-79.001 2.27 108.356 108.356 0 0 1-36.386-56.78 162.338 162.338 0 0 1 2.85-99.943 108.544 108.544 0 0 1 35.243-48.828 54.767 54.767 0 0 1 26.709-11.946z m216.576 17.066a48.623 48.623 0 0 1 30.72 5.12 94.481 94.481 0 0 1 33.536 28.4 121.327 121.327 0 0 1 24.44 56.78 98.372 98.372 0 0 1-3.977 42.667 149.077 149.077 0 0 1-22.187 47.12 100.045 100.045 0 0 1-32.427 31.233 66.816 66.816 0 0 1-40.362 9.66 73.13 73.13 0 0 1-47.173-19.303 87.364 87.364 0 0 1-23.313-45.414 178.688 178.688 0 0 1-1.143-55.092 126.55 126.55 0 0 1 17.067-44.85 150.187 150.187 0 0 1 32.426-38.606 65.024 65.024 0 0 1 32.427-17.595zM242.108 310.153a71.543 71.543 0 0 1 46.08 7.953 116.053 116.053 0 0 1 46.609 51.097 78.507 78.507 0 0 1 7.97 27.819 174.08 174.08 0 0 1-5.12 72.687 87.04 87.04 0 0 1-25.6 42.018 89.907 89.907 0 0 1-56.85 21.009 72.5 72.5 0 0 1-47.188-17.596 108.169 108.169 0 0 1-32.973-57.924 122.044 122.044 0 0 1-2.85-45.431 162.133 162.133 0 0 1 25.6-71.544 71.68 71.68 0 0 1 44.373-30.088z m505.907 56.217a88.303 88.303 0 0 1 55.142 9.66 94.669 94.669 0 0 1 35.84 37.547 109.022 109.022 0 0 1 12.51 42.018 254.874 254.874 0 0 1-3.413 62.464 93.099 93.099 0 0 1-17.613 39.748 68.95 68.95 0 0 1-34.68 22.699 114.005 114.005 0 0 1-41.488 2.85 86.391 86.391 0 0 1-46.61-17.067 75.64 75.64 0 0 1-23.893-36.335 200.892 200.892 0 0 1-6.263-58.487 166.537 166.537 0 0 1 11.366-60.194 76.8 76.8 0 0 1 29.013-35.209 74.923 74.923 0 0 1 30.123-9.66z m-251.819 74.957a104.448 104.448 0 0 1 55.706 9.08 156.706 156.706 0 0 1 63.147 60.194 634.88 634.88 0 0 0 66.56 78.916 1001.028 1001.028 0 0 0 72.192 66.44c3.976 3.414 8.533 6.827 12.51 10.786a121.02 121.02 0 0 1 32.972 73.25 164.915 164.915 0 0 1-15.906 84.037 98.833 98.833 0 0 1-42.07 45.431 165.734 165.734 0 0 1-84.12 16.47 314.3 314.3 0 0 1-82.433-14.763 256.154 256.154 0 0 0-99.481-7.373c-15.36 1.707-30.72 6.247-46.08 8.534a464.964 464.964 0 0 1-105.165 5.12 104.107 104.107 0 0 1-75.606-38.622 135.834 135.834 0 0 1-24.44-47.702 131.738 131.738 0 0 1-6.826-49.408 128.46 128.46 0 0 1 15.906-56.217 206.165 206.165 0 0 1 58.556-64.734 106.428 106.428 0 0 0 19.32-15.906c10.803-10.24 22.186-19.866 32.972-30.089a359.714 359.714 0 0 0 54-63.59c4.54-6.827 7.952-13.654 13.072-19.883a131.772 131.772 0 0 1 85.334-49.971z m-60.262 119.808v71.543h-50.586a52.907 52.907 0 0 0-16.486 2.833 89.225 89.225 0 0 0-35.84 21.59 100.403 100.403 0 0 0-25.003 43.144 128.768 128.768 0 0 0 0 44.374 89.89 89.89 0 0 0 17.067 39.253 83.115 83.115 0 0 0 47.172 31.232 110.165 110.165 0 0 0 27.307 1.126h85.333V560.538c-16.486 0.563-32.427 0.563-48.896 0.563z m74.462 74.957v128.324a50.551 50.551 0 0 0 15.906 38.042 57.515 57.515 0 0 0 34.133 14.2H677.53V636.091h-48.401v139.11h-51.2a17.869 17.869 0 0 1-14.78-6.246 21.794 21.794 0 0 1-5.12-14.2V635.511c-15.36 0.58-31.266 0.58-47.787 0.58z m0 0" fill="#FFFFFF" p-id="46436"></path><path d="M382.498 676.932a23.228 23.228 0 0 1 10.24-2.85h43.145v101.65h-38.656a40.363 40.363 0 0 1-34.134-17.597 58.027 58.027 0 0 1-9.66-31.795 74.82 74.82 0 0 1 5.12-27.306 47.497 47.497 0 0 1 23.894-22.187z m0 0" fill="#FFFFFF" p-id="46437"></path></svg>