<?xml version="1.0" standalone="no"?><!DOCTYPE svg PUBLIC "-//W3C//DTD SVG 1.1//EN" "http://www.w3.org/Graphics/SVG/1.1/DTD/svg11.dtd"><svg t="1719287966204" class="icon" viewBox="0 0 1024 1024" version="1.1" xmlns="http://www.w3.org/2000/svg" p-id="52421" xmlns:xlink="http://www.w3.org/1999/xlink" width="256" height="256"><path d="M985.742 749.936c0 130.864-106.178 236.964-237.17 236.964H274.298c-130.954 0-237.092-106.102-237.092-236.964V276.018c0-130.902 106.138-236.966 237.092-236.966h474.274c130.992 0 237.17 106.064 237.17 236.966v473.918z" fill="#235B9E" p-id="52422"></path><path d="M432.434 809.176h118.568V512.984h87.996l10.808-118.482h-94.252V347.14c0-23.102 15.398-28.464 26.208-28.464h66.542v-101.512l-91.59-0.384c-101.662 0-124.782 75.71-124.782 124.19v53.534H373.14v118.482h59.294v296.19z" fill="#FFFFFF" p-id="52423"></path><path d="M432.434 809.176h118.568V512.984h87.996l10.808-118.482h-94.252V347.14c0-23.102 15.398-28.464 26.208-28.464h66.542v-101.512l-91.59-0.384c-101.662 0-124.782 75.71-124.782 124.19v53.534H373.14v118.482h59.294v296.19z" fill="#FFFFFF" p-id="52424"></path><path d="M556.712 216.778l91.59 0.384v101.512H581.76c-10.808 0-26.208 5.362-26.208 28.464v47.362h94.252l-10.808 118.482H551v296.192h-118.568V512.982H373.14V394.5h58.792v-53.534c0-48.478 23.118-124.188 124.78-124.188m0-19.754c-64.452 0-98.87 28.234-116.394 51.92-24.486 33.094-28.142 71.862-28.142 92.024v33.78H373.14c-10.91 0-19.754 8.844-19.754 19.754v118.482c0 10.91 8.844 19.754 19.754 19.754h39.54v276.438c0 10.91 8.844 19.754 19.754 19.754h118.568c10.91 0 19.754-8.844 19.754-19.754V532.738h68.242a19.756 19.756 0 0 0 19.672-17.96l10.808-118.482a19.76 19.76 0 0 0-19.672-21.55h-74.498v-27.608c0-4.532 0.948-6.908 1.758-7.568 0.7-0.568 2.422-1.142 4.696-1.142h66.542c10.91 0 19.754-8.844 19.754-19.754v-101.512a19.752 19.752 0 0 0-19.67-19.754l-91.59-0.384h-0.086z" fill="#1A4477" p-id="52425"></path><path d="M728.078 956.122H294.83c-124.896 0-226.506-101.636-226.506-226.566V296.358c0-124.908 101.61-226.526 226.506-226.526h433.248c124.918 0 226.544 101.62 226.544 226.526v433.198c0.002 124.928-101.626 226.566-226.544 226.566zM294.83 89.636c-113.976 0-206.702 92.734-206.702 206.72v433.198c0 114.008 92.726 206.762 206.702 206.762h433.248c113.996 0 206.74-92.754 206.74-206.762V296.358c0-113.986-92.744-206.72-206.74-206.72H294.83z" fill="#1A4477" p-id="52426"></path></svg>