<?xml version="1.0" standalone="no"?><!DOCTYPE svg PUBLIC "-//W3C//DTD SVG 1.1//EN" "http://www.w3.org/Graphics/SVG/1.1/DTD/svg11.dtd"><svg t="1719287787812" class="icon" viewBox="0 0 1024 1024" version="1.1" xmlns="http://www.w3.org/2000/svg" p-id="43344" xmlns:xlink="http://www.w3.org/1999/xlink" width="256" height="256"><path d="M480.8 457.76a271.04 271.04 0 0 0-37.28 2.72c-96 13.44-166.72 75.04-157.92 137.44s93.6 101.92 189.6 88.48 166.72-75.04 157.92-137.44c-7.68-54.08-73.12-91.04-152.32-91.2z m-23.36 211.52a122.08 122.08 0 0 1-24 2.4c-48 0-88-27.52-96-68.32-9.28-48 29.44-95.2 86.56-106.24s110.88 18.4 120 66.08-29.44 95.04-86.56 106.08z" fill="#F56467" p-id="43345"></path><path d="M512 73.28A438.72 438.72 0 1 0 950.72 512 438.72 438.72 0 0 0 512 73.28z m-43.84 666.88c-150.24 0-272-78.56-272-176S378.56 314.72 448 314.72c29.28 0 86.56 21.76 46.4 90.88a246.24 246.24 0 0 0 34.08-10.08c32-9.12 76.96-18.24 107.68 0 51.04 29.6 0 77.12 0 82.4s102.4 5.28 102.4 87.2c0.32 96.48-120.16 175.04-270.4 175.04z m213.76-358.88a56 56 0 0 0-47.2-16 16.96 16.96 0 0 1-17.28-14.4 12.16 12.16 0 0 0 0 2.4v-4.8a12.16 12.16 0 0 0 0 2.4 20.48 20.48 0 0 1 17.28-17.28 77.28 77.28 0 0 1 68.32 18.56c32 28.48 18.72 75.68 18.72 75.68a21.28 21.28 0 0 1-20.48 17.28h-1.76a12.48 12.48 0 0 1-12.8-16.8 49.44 49.44 0 0 0-4.8-47.04z m120.16 60.64a29.6 29.6 0 0 1-26.08 25.92 22.08 22.08 0 0 1-19.68-25.92A139.2 139.2 0 0 0 736 336c-34.88-50.08-109.92-41.28-109.92-41.28A26.24 26.24 0 0 1 599.84 272v2.88-5.6 2.72a26.56 26.56 0 0 1 26.24-23.52 188.32 188.32 0 0 1 136.16 47.04c58.08 55.04 39.84 146.4 39.84 146.4z" fill="#F56467" p-id="43346"></path><path d="M459.36 547.04a17.6 17.6 0 1 0 17.6 17.6 17.6 17.6 0 0 0-17.6-17.6zM415.04 570.24a43.52 43.52 0 0 0-18.4 4.32 32 32 0 0 0-20.64 38.56 32 32 0 0 0 42.88 9.12 32 32 0 0 0 20.64-38.72 25.76 25.76 0 0 0-24.48-13.28z" fill="#F56467" p-id="43347"></path></svg>