<svg version="1.1" fill="white"  stroke="#07c160" viewBox="0 0 50 50" xml:space="preserve" xmlns="http://www.w3.org/2000/svg" xmlns:xlink="http://www.w3.org/1999/xlink"><g id="Layer_1"><path  fill="#07c160"  d="M19,25c0,3.309,2.691,6,6,6s6-2.691,6-6s-2.691-6-6-6S19,21.691,19,25z M29,25c0,2.206-1.794,4-4,4s-4-1.794-4-4   s1.794-4,4-4S29,22.794,29,25z"/><path d="M40.557,9.443C44.712,13.599,47,19.123,47,25s-2.288,11.401-6.443,15.557l1.414,1.414C46.503,37.438,49,31.411,49,25   s-2.497-12.438-7.029-16.971L40.557,9.443z"/><path d="M36.313,36.313C39.335,33.293,41,29.274,41,25s-1.665-8.293-4.687-11.313l-1.414,1.414C37.544,17.744,39,21.26,39,25   s-1.456,7.256-4.101,9.899L36.313,36.313z"/><path  d="M13.687,13.687C10.665,16.707,9,20.726,9,25s1.665,8.293,4.687,11.313l1.414-1.414C12.456,32.256,11,28.74,11,25   s1.456-7.256,4.101-9.899L13.687,13.687z"/><path d="M9.443,40.557C5.288,36.401,3,30.877,3,25S5.288,13.599,9.443,9.443L8.029,8.029C3.497,12.562,1,18.589,1,25   s2.497,12.438,7.029,16.971L9.443,40.557z"/></g><g/></svg>