<?xml version="1.0" standalone="no"?><!DOCTYPE svg PUBLIC "-//W3C//DTD SVG 1.1//EN" "http://www.w3.org/Graphics/SVG/1.1/DTD/svg11.dtd"><svg height="1024" node-id="1" sillyvg="true" template-height="1024" template-width="1024" version="1.1" viewBox="0 0 1024 1024" width="1024" xmlns="http://www.w3.org/2000/svg" xmlns:xlink="http://www.w3.org/1999/xlink"><defs node-id="129"><linearGradient gradientUnits="objectBoundingBox" id="linear-gradient" node-id="3" spreadMethod="pad" x1="0.4432002" x2="0.5182341" y1="0.45320472" y2="0.781353"><stop offset="0" stop-color="#3668f2" stop-opacity="0.322"></stop><stop offset="1" stop-color="#ffffff" stop-opacity="0"></stop></linearGradient><linearGradient gradientUnits="objectBoundingBox" id="linear-gradient-2" node-id="6" spreadMethod="pad" x1="0.01" x2="1.032" y1="0.564" y2="0.363"><stop offset="0" stop-color="#d2e3f9"></stop><stop offset="0.355" stop-color="#c0d4fc"></stop><stop offset="0.566" stop-color="#adc6f9"></stop><stop offset="1" stop-color="#a8bff8"></stop></linearGradient><linearGradient gradientUnits="objectBoundingBox" id="linear-gradient-3" node-id="11" spreadMethod="pad" x1="0.131" x2="0.989" y1="0.85" y2="0.171"><stop offset="0" stop-color="#ffffff"></stop><stop offset="1" stop-color="#c7deff"></stop></linearGradient><linearGradient gradientUnits="objectBoundingBox" id="linear-gradient-4" node-id="14" spreadMethod="pad" x1="-0.033" x2="1.015" y1="0.619" y2="0.426"><stop offset="0" stop-color="#b8d5ff"></stop><stop offset="0.192" stop-color="#c5d9fd"></stop><stop offset="0.407" stop-color="#b1ccfb"></stop><stop offset="0.569" stop-color="#a4c5ff"></stop><stop offset="0.773" stop-color="#a5c7ff"></stop><stop offset="1" stop-color="#c7defe"></stop></linearGradient><linearGradient gradientUnits="objectBoundingBox" id="linear-gradient-5" node-id="21" spreadMethod="pad" x1="0.083" x2="0.946" y1="0.029" y2="1.025"><stop offset="0" stop-color="#97b7ff"></stop><stop offset="0.554" stop-color="#77a2ff"></stop><stop offset="0.628" stop-color="#4c83fe"></stop><stop offset="0.727" stop-color="#6495ff"></stop><stop offset="1" stop-color="#6b9aff"></stop></linearGradient><linearGradient gradientUnits="objectBoundingBox" id="linear-gradient-6" node-id="27" spreadMethod="pad" x1="0.031" x2="0.943" y1="0.035" y2="0.935"><stop offset="0" stop-color="#709dff"></stop><stop offset="1" stop-color="#3775ff"></stop></linearGradient><linearGradient gradientUnits="objectBoundingBox" id="linear-gradient-7" node-id="30" spreadMethod="pad" x1="0.202" x2="0.961" y1="0" y2="0.696"><stop offset="0" stop-color="#d4e2ff"></stop><stop offset="1" stop-color="#5c92f9"></stop></linearGradient><linearGradient gradientUnits="objectBoundingBox" id="linear-gradient-8" node-id="33" spreadMethod="pad" x1="0.174" x2="1" y1="0" y2="0.848"><stop offset="0" stop-color="#6989ff"></stop><stop offset="1" stop-color="#456fff"></stop></linearGradient><linearGradient gradientUnits="objectBoundingBox" id="linear-gradient-9" node-id="38" spreadMethod="pad" x1="0.628" x2="0.244" y1="0.145" y2="0.747"><stop offset="0" stop-color="#d2e6ff"></stop><stop offset="0.192" stop-color="#e7f2ff"></stop><stop offset="0.483" stop-color="#ffffff"></stop><stop offset="1" stop-color="#d2e2fb"></stop></linearGradient><linearGradient gradientUnits="objectBoundingBox" id="linear-gradient-10" node-id="43" spreadMethod="pad" x1="0.5" x2="0.866" y1="0.141" y2="0.895"><stop offset="0" stop-color="#acc9fb"></stop><stop offset="1" stop-color="#e4eeff"></stop></linearGradient><linearGradient gradientUnits="objectBoundingBox" id="linear-gradient-11" node-id="46" spreadMethod="pad" x1="0.672" x2="0.404" y1="0.175" y2="0.645"><stop offset="0" stop-color="#ebf4ff"></stop><stop offset="1" stop-color="#ffffff"></stop></linearGradient><linearGradient gradientUnits="objectBoundingBox" id="linear-gradient-12" node-id="49" spreadMethod="pad" x1="1" x2="0.282" y1="0.009" y2="0.89"><stop offset="0" stop-color="#a4c6fd"></stop><stop offset="0.284" stop-color="#ffffff"></stop><stop offset="0.401" stop-color="#ffffff"></stop><stop offset="0.476" stop-color="#ffffff"></stop><stop offset="0.803" stop-color="#9ec4fc"></stop><stop offset="1" stop-color="#8cb9fb"></stop></linearGradient><linearGradient gradientUnits="objectBoundingBox" id="linear-gradient-13" node-id="56" spreadMethod="pad" x1="0.022" x2="1.012" y1="0.754" y2="0.095"><stop offset="0" stop-color="#b1f5e6"></stop><stop offset="1" stop-color="#7fe7cf"></stop></linearGradient><linearGradient gradientUnits="objectBoundingBox" id="linear-gradient-14" node-id="59" spreadMethod="pad" x1="0.044" x2="0.985" y1="0.572" y2="0.4"><stop offset="0" stop-color="#59eccb"></stop><stop offset="1" stop-color="#aef5e4"></stop></linearGradient><clipPath id="clip-数据表单" node-id="62"><path d="M 0.00 0.00 L 1024.00 0.00 L 1024.00 1024.00 L 0.00 1024.00 Z" fill="#000000" fill-rule="nonzero" node-id="246" stroke="none" target-height="1024" target-width="1024" target-x="0" target-y="0"></path></clipPath><clipPath id="clip-path" node-id="36"><path d="M 660.90 591.60 L 660.90 640.40 L 698.10 686.20 L 734.80 683.10 L 734.80 633.40 L 698.10 587.90 Z" fill="#000000" fill-rule="nonzero" id="路径_1487" node-id="37" stroke="none" target-height="98.29999" target-width="73.89996" target-x="660.9" target-y="587.9"></path></clipPath></defs><g clip-path="url(#clip-数据表单)" id="数据表单" node-id="64"><path d="M 0.00 0.00 L 1024.00 0.00 L 1024.00 1024.00 L 0.00 1024.00 Z" fill="#ffffff" fill-rule="nonzero" node-id="254" stroke="none" target-height="1024" target-width="1024" target-x="0" target-y="0"></path><path d="M 359.10 814.90 L 470.60 910.10 L 616.80 965.10 L 1033.40 686.50 L 926.70 637.80 Z" fill="url(#linear-gradient)" fill-opacity="0.87" fill-rule="nonzero" group-id="1" id="路径_1463" node-id="66" stroke="none" target-height="327.3" target-width="674.30005" target-x="359.1" target-y="637.8"></path><path d="M 170.70 633.00 L 158.90 633.90 L 147.40 635.70 L 141.20 637.10 L 131.00 640.30 L 123.80 643.80 L 120.60 646.00 L 118.00 648.30 L 115.90 650.90 L 112.30 657.80 L 108.60 668.20 L 105.60 681.00 L 103.70 695.30 L 103.20 703.10 L 103.20 711.00 L 103.60 719.00 L 104.50 727.10 L 105.50 733.20 L 108.70 745.10 L 110.80 751.00 L 113.30 756.70 L 116.20 762.20 L 119.60 767.50 L 123.50 772.70 L 128.40 778.20 L 134.10 783.90 L 140.50 789.70 L 154.20 800.70 L 173.10 814.10 L 196.60 828.70 L 228.10 846.40 L 273.40 870.30 L 291.80 878.90 L 302.40 883.40 L 314.10 887.90 L 326.20 892.20 L 347.80 898.50 L 365.70 902.40 L 374.80 903.80 L 383.90 904.80 L 393.00 905.40 L 411.60 905.90 L 428.20 906.10 L 444.30 905.80 L 458.80 905.10 L 473.00 904.00 L 486.30 902.30 L 499.30 900.00 L 512.00 897.20 L 524.60 893.70 L 537.50 889.60 L 543.10 887.30 L 553.00 882.60 L 578.30 869.20 L 611.60 850.70 L 650.90 828.30 L 739.80 776.30 L 829.60 722.90 L 904.80 677.60 L 956.60 645.70 L 957.00 641.70 L 957.10 633.10 L 956.60 599.90 L 542.90 419.60 Z" fill="url(#linear-gradient-2)" fill-rule="nonzero" group-id="2,7" id="路径_1469" node-id="68" stroke="none" target-height="486.49997" target-width="853.89996" target-x="103.2" target-y="419.6"></path><path d="M 170.70 584.80 L 160.90 591.40 L 146.00 602.60 L 135.50 611.60 L 130.80 616.10 L 126.60 620.60 L 123.50 624.80 L 117.40 635.20 L 114.30 641.70 L 111.30 649.30 L 108.10 660.10 L 107.00 666.10 L 106.30 672.10 L 106.10 678.30 L 106.40 684.80 L 108.00 694.50 L 111.30 704.60 L 113.50 709.50 L 116.30 714.50 L 119.60 719.50 L 123.50 724.70 L 128.40 730.20 L 134.00 735.90 L 140.40 741.70 L 154.10 752.70 L 161.60 758.20 L 173.10 766.10 L 184.80 773.60 L 207.70 787.20 L 228.10 798.40 L 273.30 822.30 L 291.80 830.90 L 302.30 835.40 L 314.00 839.90 L 326.20 844.20 L 347.80 850.50 L 365.70 854.40 L 374.80 855.80 L 383.90 856.80 L 392.90 857.40 L 411.60 857.90 L 428.20 858.10 L 444.20 857.80 L 458.80 857.10 L 473.00 856.00 L 486.20 854.30 L 499.30 852.00 L 512.00 849.20 L 524.60 845.70 L 537.40 841.60 L 543.10 839.30 L 552.80 834.70 L 563.70 829.20 L 610.80 803.70 L 692.30 757.40 L 825.90 679.50 L 952.50 604.60 L 955.50 602.20 L 956.10 601.20 L 956.30 599.00 L 955.80 598.10 L 954.70 597.00 L 952.50 595.80 L 924.20 580.60 L 542.90 371.60 Z" fill="url(#linear-gradient-3)" fill-rule="nonzero" group-id="2,8" id="路径_1470" node-id="69" stroke="none" target-height="486.49997" target-width="850.2" target-x="106.1" target-y="371.6"></path><path d="M 172.70 578.00 L 162.90 584.60 L 148.00 595.70 L 137.50 604.60 L 132.90 609.10 L 128.70 613.60 L 125.50 617.80 L 122.70 622.30 L 119.40 628.20 L 116.30 634.70 L 113.30 642.30 L 110.20 653.10 L 109.10 659.10 L 108.40 665.10 L 108.20 671.30 L 108.50 677.80 L 110.10 687.50 L 113.40 697.60 L 115.60 702.50 L 118.30 707.50 L 121.60 712.50 L 125.50 717.70 L 130.40 723.20 L 136.10 728.90 L 142.50 734.70 L 156.20 745.70 L 175.10 759.10 L 186.80 766.60 L 209.70 780.20 L 261.80 808.20 L 275.40 815.30 L 293.80 823.90 L 316.10 832.90 L 328.20 837.20 L 349.80 843.50 L 367.70 847.40 L 376.80 848.80 L 385.90 849.80 L 395.00 850.40 L 413.60 850.90 L 430.20 851.10 L 446.30 850.80 L 460.80 850.10 L 475.00 849.00 L 488.30 847.30 L 501.30 845.00 L 514.00 842.20 L 526.60 838.70 L 539.50 834.60 L 545.10 832.30 L 554.80 827.80 L 579.80 814.90 L 612.50 797.20 L 651.10 775.70 L 738.30 726.20 L 826.40 675.20 L 952.30 601.60 L 954.60 599.90 L 955.50 598.70 L 956.10 597.60 L 956.20 596.30 L 955.60 595.00 L 954.50 593.90 L 952.30 592.60 L 924.10 577.10 L 544.90 364.60 Z" fill="url(#linear-gradient-4)" fill-rule="nonzero" group-id="2,9" id="路径_1471" node-id="70" stroke="none" target-height="486.49997" target-width="848" target-x="108.2" target-y="364.6"></path><path d="M 353.00 155.90 L 382.40 142.40 L 384.90 141.80 L 387.50 141.70 L 390.10 142.20 L 392.50 143.30 L 763.10 355.40 L 772.30 360.70 L 775.30 363.60 L 777.10 366.90 L 777.90 369.30 L 778.70 375.10 L 778.40 434.10 L 778.70 639.90 L 750.90 662.00 L 747.30 385.00 Z" fill="url(#linear-gradient-5)" fill-rule="nonzero" group-id="3,10" id="路径_1472" node-id="72" stroke="none" target-height="520.3" target-width="425.7" target-x="353" target-y="141.7"></path><path d="M 349.00 160.80 L 349.80 157.10 L 350.50 155.70 L 351.40 154.40 L 352.70 153.40 L 354.40 152.90 L 355.60 152.90 L 359.00 153.80 L 386.30 169.10 L 488.40 227.60 L 690.20 343.90 L 743.20 374.80 L 745.80 376.90 L 748.10 379.10 L 750.40 382.80 L 751.30 385.00 L 752.30 390.10 L 752.40 393.50 L 754.70 684.70 L 754.00 687.60 L 751.80 689.80 L 750.40 690.40 L 746.70 690.70 L 744.70 690.20 L 742.30 689.10 L 355.30 462.90 L 352.60 461.10 L 350.50 458.90 L 349.00 456.50 L 348.00 453.90 L 347.40 450.80 L 347.20 447.20 L 349.00 160.80 Z" fill="#a8ccfc" fill-rule="nonzero" group-id="3,11" id="路径_1473" node-id="73" stroke="none" target-height="537.80005" target-width="407.5" target-x="347.2" target-y="152.9"></path><path d="M 350.70 160.30 L 351.30 158.00 L 353.00 155.80 L 355.20 155.10 L 357.90 156.10 L 718.00 364.20 L 743.20 379.00 L 746.00 381.80 L 747.10 383.60 L 748.10 386.20 L 748.60 389.30 L 748.80 394.00 L 751.10 682.90 L 750.90 684.60 L 750.40 685.80 L 749.80 686.60 L 748.80 687.00 L 747.30 687.10 L 745.10 686.60 L 742.00 685.00 L 359.10 461.20 L 356.40 459.40 L 354.30 457.50 L 352.80 455.40 L 351.70 453.10 L 351.00 450.20 L 350.80 446.70 L 350.70 160.30 Z" fill="url(#linear-gradient-6)" fill-rule="nonzero" group-id="3,12" id="路径_1474" node-id="74" stroke="none" target-height="532" target-width="400.39996" target-x="350.7" target-y="155.1"></path><path d="M 437.70 241.70 L 438.40 239.70 L 439.00 239.10 L 440.50 238.80 L 441.80 239.30 L 660.20 365.70 L 662.50 368.30 L 663.30 371.50 L 663.40 410.20 L 663.20 411.60 L 662.70 412.40 L 661.80 412.70 L 660.50 412.50 L 658.30 411.50 L 439.60 283.60 L 438.40 282.50 L 436.90 279.90 L 436.40 276.40 L 437.70 241.70 Z" fill="#92c3ff" fill-rule="nonzero" group-id="3,13" id="路径_1475" node-id="75" stroke="none" target-height="173.90001" target-width="227.00003" target-x="436.4" target-y="238.8"></path><path d="M 448.20 257.40 L 448.90 255.60 L 449.60 254.90 L 450.90 254.80 L 451.90 255.20 L 648.10 368.50 L 649.80 370.10 L 651.10 371.90 L 652.10 373.90 L 653.10 377.60 L 653.40 383.10 L 653.30 395.10 L 653.10 396.30 L 652.60 397.00 L 651.80 397.30 L 650.60 397.10 L 648.60 396.20 L 451.90 281.20 L 450.00 279.80 L 448.70 278.30 L 447.90 276.30 L 447.70 273.80 L 448.20 257.40 Z" fill="#3775ff" fill-rule="nonzero" group-id="3,14" id="路径_1476" node-id="76" stroke="none" target-height="142.49998" target-width="205.70001" target-x="447.7" target-y="254.8"></path><path d="M 460.20 361.40 L 460.90 359.60 L 461.60 358.90 L 462.90 358.80 L 463.90 359.20 L 645.10 463.80 L 662.80 474.10 L 664.20 475.60 L 665.30 477.80 L 665.70 481.80 L 665.80 577.80 L 665.60 579.00 L 665.20 579.70 L 664.40 580.00 L 663.20 579.80 L 661.20 578.90 L 464.50 463.90 L 462.50 462.50 L 461.20 460.90 L 460.50 459.00 L 460.20 456.50 Z" fill="#5c90ff" fill-rule="nonzero" group-id="3,15" id="路径_1496" node-id="77" stroke="none" target-height="221.20001" target-width="205.59998" target-x="460.2" target-y="358.8"></path><path d="M 642.10 533.90 L 648.70 529.60 L 656.60 525.30 L 659.80 525.00 L 661.70 525.20 L 665.30 526.40 L 774.10 583.60 L 776.30 586.00 L 777.20 587.70 L 778.00 590.30 L 778.50 593.30 L 778.70 597.60 L 777.80 728.50 L 776.50 730.10 L 768.90 735.20 L 765.10 737.10 L 762.80 737.40 L 753.20 731.20 L 722.30 709.10 L 657.40 661.00 L 656.50 659.90 L 656.00 658.60 L 642.10 533.90 Z" fill="url(#linear-gradient-7)" fill-opacity="0.76" fill-rule="nonzero" group-id="4,16" id="路径_1477" node-id="79" stroke="none" target-height="212.40002" target-width="136.60004" target-x="642.1" target-y="525"></path><path d="M 640.40 535.60 L 640.80 534.50 L 642.00 533.60 L 644.50 533.70 L 646.60 534.40 L 758.00 593.60 L 761.80 596.40 L 764.50 600.20 L 765.60 602.90 L 766.20 606.00 L 766.40 609.90 L 766.80 736.30 L 766.40 737.10 L 765.60 737.70 L 763.30 737.90 L 761.10 737.20 L 716.40 712.40 L 643.50 672.70 L 642.40 671.90 L 641.50 670.80 L 641.00 669.60 L 640.90 668.20 L 640.40 535.60 Z" fill="#cfddfd" fill-rule="nonzero" group-id="4,17" id="路径_1478" node-id="80" stroke="#eff7ff" stroke-linecap="butt" stroke-width="1.4" target-height="204.30005" target-width="126.39996" target-x="640.4" target-y="533.6"></path><path d="M 667.60 585.80 L 660.70 591.70 L 700.00 609.20 L 726.60 641.70 L 734.70 683.00 L 741.90 678.00 L 741.30 628.50 L 704.10 582.80 Z" fill="url(#linear-gradient-8)" fill-rule="nonzero" group-id="4" id="路径_1481" node-id="81" stroke="none" target-height="100.20001" target-width="81.20001" target-x="660.7" target-y="582.8"></path><path d="M 660.90 591.60 L 660.90 640.40 L 698.10 686.20 L 734.80 683.10 L 734.80 633.40 L 698.10 587.90 Z" fill="#849ffd" fill-rule="nonzero" group-id="4" id="路径_1480" node-id="82" stroke="none" target-height="98.29999" target-width="73.89996" target-x="660.9" target-y="587.9"></path><g clip-path="url(#clip-path)" group-id="4,18" id="蒙版组_271" node-id="83"><path d="M 734.80 683.00 L 660.30 590.50" fill="none" group-id="4,18" id="路径_1484" node-id="84" stroke="#c9dbff" stroke-linecap="butt" stroke-width="1.2" target-height="92.5" target-width="74.5" target-x="660.3" target-y="590.5"></path><path d="M 698.10 587.40 L 698.40 686.00" fill="none" group-id="4,18" id="路径_1485" node-id="85" stroke="#c9dbff" stroke-linecap="butt" stroke-width="1.2" target-height="98.599976" target-width="0.30004883" target-x="698.1" target-y="587.4"></path><path d="M 659.30 639.80 L 735.50 633.70" fill="none" group-id="4,18" id="路径_1486" node-id="86" stroke="#c9dbff" stroke-linecap="butt" stroke-width="1.2" target-height="6.0999756" target-width="76.20001" target-x="659.3" target-y="633.7"></path></g><path d="M 670.40 603.40 L 670.40 639.50 L 698.60 675.20 L 725.80 672.70 L 725.20 634.30 L 698.00 600.60 Z" fill="none" group-id="4,19" id="路径_1482" node-id="87" stroke="#c9dbff" stroke-linecap="butt" stroke-width="1" target-height="74.60004" target-width="55.399963" target-x="670.4" target-y="600.6"></path><path d="M 674.70 609.60 L 671.70 642.20 L 698.70 667.80 L 721.70 670.10 L 713.80 634.90 L 698.00 610.10 Z" fill="#e5ebff" fill-rule="nonzero" group-id="4,20" id="路径_1483" node-id="88" stroke="none" target-height="60.5" target-width="50" target-x="671.7" target-y="609.6"></path><path d="M 456.90 270.70 L 646.90 380.00 L 636.90 384.90 L 627.60 390.10 L 618.10 396.30 L 614.40 399.40 L 611.00 402.80 L 608.10 406.60 L 605.60 410.80 L 603.40 415.60 L 601.70 421.20 L 600.50 426.90 L 599.60 433.60 L 599.20 441.50 L 599.20 640.80 L 598.90 648.00 L 597.60 657.40 L 596.30 662.50 L 594.40 667.70 L 592.90 671.00 L 588.80 677.20 L 586.30 679.90 L 583.40 682.30 L 580.00 684.40 L 577.20 685.60 L 572.40 686.50 L 570.30 686.40 L 567.50 685.80 L 564.90 684.60 L 562.60 682.90 L 558.50 678.40 L 556.80 675.70 L 554.60 671.30 L 553.00 666.80 L 551.80 662.20 L 550.10 651.60 L 548.50 644.90 L 547.00 640.60 L 543.40 632.80 L 541.10 629.30 L 538.50 626.30 L 535.80 623.90 L 528.80 619.50 L 497.20 601.20 L 402.50 548.00 L 404.70 548.00 L 407.40 547.20 L 409.30 545.30 L 410.20 542.40 L 410.70 492.70 L 411.10 320.10 L 411.30 316.30 L 412.20 311.90 L 413.70 307.40 L 415.80 302.70 L 419.60 296.60 L 421.90 293.70 L 427.10 289.10 L 434.30 284.00 L 442.20 279.10 L 456.90 270.70 Z" fill="url(#linear-gradient-9)" fill-rule="nonzero" group-id="5,21" id="路径_1488" node-id="90" stroke="none" target-height="415.8" target-width="244.40002" target-x="402.5" target-y="270.7"></path><path d="M 502.60 643.20 L 549.70 671.10 L 546.70 647.60 L 543.70 637.80 L 538.10 627.90 L 532.70 626.50 L 522.20 627.90 L 509.60 633.50 L 504.20 638.80 Z" fill="url(#linear-gradient-10)" fill-rule="nonzero" group-id="5,22" id="路径_1489" node-id="91" stroke="none" target-height="44.599976" target-width="47.100006" target-x="502.6" target-y="626.5"></path><path d="M 218.00 673.60 L 401.40 781.80 L 455.70 748.00 L 462.00 743.20 L 465.60 739.90 L 469.60 735.60 L 474.30 728.80 L 476.40 724.80 L 478.10 720.60 L 479.40 715.90 L 480.30 710.60 L 483.20 689.70 L 486.00 675.00 L 489.50 661.50 L 491.50 655.80 L 494.70 649.30 L 496.30 647.00 L 499.90 642.80 L 504.50 638.40 L 509.50 634.40 L 514.90 630.80 L 518.60 628.60 L 525.90 625.50 L 529.70 624.60 L 533.10 624.30 L 536.70 624.40 L 536.60 624.00 L 531.00 620.00 L 524.50 616.00 L 485.50 593.50 L 434.20 564.80 L 349.20 518.10 L 343.70 518.30 L 336.70 519.80 L 329.70 522.50 L 326.20 524.40 L 322.50 526.90 L 318.60 530.10 L 315.80 533.00 L 313.00 536.50 L 310.20 540.50 L 305.40 549.40 L 303.20 554.40 L 300.30 562.00 L 297.70 570.00 L 293.70 585.80 L 290.20 606.40 L 288.50 612.30 L 286.40 617.90 L 283.70 623.20 L 280.40 628.10 L 276.80 632.70 L 272.60 637.10 L 267.80 641.30 L 262.50 645.30 L 218.00 673.60 Z" fill="url(#linear-gradient-11)" fill-rule="nonzero" group-id="5,23" id="路径_1490" node-id="92" stroke="none" target-height="263.7" target-width="318.7" target-x="218" target-y="518.1"></path><path d="M 646.70 379.70 L 646.70 385.40 L 631.70 393.30 L 623.80 398.10 L 616.80 403.20 L 614.00 405.80 L 612.20 408.00 L 610.20 411.60 L 608.40 415.90 L 606.90 420.60 L 605.60 426.50 L 603.90 440.90 L 603.20 460.20 L 603.20 650.70 L 602.20 657.10 L 601.10 661.00 L 597.30 669.40 L 594.70 673.60 L 591.70 677.60 L 588.10 681.20 L 582.50 685.00 L 579.40 686.50 L 576.30 687.50 L 570.70 688.10 L 568.10 687.90 L 564.80 687.10 L 561.70 685.80 L 558.90 684.10 L 554.00 679.50 L 552.00 676.90 L 548.90 671.20 L 546.90 664.80 L 542.60 642.50 L 541.20 638.30 L 539.60 634.80 L 538.30 632.70 L 536.70 631.00 L 535.00 629.70 L 533.00 628.80 L 530.90 628.40 L 528.50 628.40 L 523.50 629.60 L 517.00 632.80 L 509.40 638.30 L 503.00 644.50 L 500.60 647.40 L 499.00 649.90 L 495.50 657.80 L 493.20 664.80 L 489.00 682.10 L 485.60 700.80 L 483.30 715.70 L 482.20 720.70 L 479.50 728.80 L 476.20 735.10 L 473.10 739.20 L 469.70 742.70 L 461.80 749.40 L 454.80 754.40 L 433.60 768.30 L 402.60 787.70 L 218.00 678.80 L 218.00 673.50 L 401.50 780.80 L 430.80 763.90 L 443.70 755.70 L 463.30 741.20 L 467.80 737.10 L 471.80 732.60 L 474.10 729.40 L 475.90 726.00 L 477.30 722.50 L 478.40 718.40 L 484.30 684.50 L 487.30 669.40 L 489.10 662.30 L 492.60 652.10 L 495.90 646.10 L 499.70 641.10 L 503.40 637.10 L 507.00 633.80 L 511.00 630.80 L 514.70 628.50 L 518.30 626.80 L 522.10 625.50 L 528.90 624.20 L 532.20 624.20 L 535.10 624.90 L 537.70 626.00 L 540.10 627.70 L 542.30 629.90 L 544.20 632.50 L 545.70 635.40 L 546.90 638.70 L 551.50 659.80 L 554.20 669.10 L 557.50 676.80 L 558.90 678.90 L 561.70 681.50 L 565.90 683.20 L 568.70 683.70 L 574.30 683.70 L 580.20 682.40 L 583.00 681.20 L 585.70 679.60 L 588.10 677.70 L 590.20 675.20 L 592.10 672.30 L 595.60 664.10 L 598.10 654.90 L 598.90 649.40 L 599.20 643.80 L 598.80 448.40 L 598.90 441.00 L 599.40 434.10 L 600.70 425.00 L 603.10 415.20 L 604.80 410.40 L 606.80 406.20 L 610.30 401.40 L 612.20 399.60 L 619.90 394.40 L 628.90 389.10 L 646.70 379.70 Z" fill="url(#linear-gradient-12)" fill-rule="nonzero" group-id="5,24" id="路径_1491" node-id="93" stroke="none" target-height="408" target-width="428.7" target-x="218" target-y="379.7"></path><path d="M 333.10 592.20 L 331.00 591.70 L 328.90 592.20 L 328.20 593.10 L 327.80 594.80 L 327.90 596.30 L 328.90 599.40 L 331.30 601.60 L 426.70 656.90 L 460.80 676.30 L 463.30 676.40 L 464.50 676.10 L 465.50 674.90 L 465.80 674.00 L 465.70 672.40 L 464.70 669.50 L 463.20 667.70 L 461.20 666.20 L 333.10 592.20 Z" fill="#2fcca4" fill-rule="nonzero" group-id="5,25,33,44" id="路径_1452" node-id="96" stroke="none" target-height="84.70001" target-width="138" target-x="327.8" target-y="591.7"></path><path d="M 331.10 594.20 L 329.00 593.70 L 326.90 594.20 L 326.20 595.10 L 325.80 596.80 L 325.90 598.30 L 326.90 601.40 L 329.30 603.60 L 424.70 658.90 L 458.80 678.30 L 461.30 678.40 L 462.50 678.10 L 463.50 676.90 L 463.80 676.00 L 463.70 674.40 L 462.70 671.50 L 461.20 669.70 L 459.20 668.20 L 331.10 594.20 Z" fill="#78e6cc" fill-rule="nonzero" group-id="5,25,33" id="路径_1453" node-id="97" stroke="none" target-height="84.70001" target-width="138" target-x="325.8" target-y="593.7"></path><path d="M 442.10 485.20 L 440.00 484.70 L 437.90 485.20 L 437.20 486.10 L 436.80 487.80 L 436.90 489.30 L 437.90 492.40 L 440.30 494.60 L 535.70 549.90 L 569.80 569.30 L 572.30 569.40 L 573.50 569.10 L 574.50 567.90 L 574.80 567.00 L 574.70 565.40 L 573.70 562.50 L 572.20 560.70 L 570.20 559.20 L 442.10 485.20 Z" fill="#2fcca4" fill-rule="nonzero" group-id="5,25,34,45" id="路径_1452-2" node-id="99" stroke="none" target-height="84.70001" target-width="138" target-x="436.8" target-y="484.7"></path><path d="M 440.10 487.20 L 438.00 486.70 L 435.90 487.20 L 435.20 488.10 L 434.80 489.80 L 434.90 491.30 L 435.90 494.40 L 438.30 496.60 L 533.70 551.90 L 567.80 571.30 L 570.30 571.40 L 571.50 571.10 L 572.50 569.90 L 572.80 569.00 L 572.70 567.40 L 571.70 564.50 L 570.20 562.70 L 568.20 561.20 L 440.10 487.20 Z" fill="#78e6cc" fill-rule="nonzero" group-id="5,25,34" id="路径_1453-2" node-id="100" stroke="none" target-height="84.70001" target-width="138" target-x="434.8" target-y="486.7"></path><path d="M 442.10 459.20 L 440.00 458.70 L 437.90 459.20 L 437.20 460.10 L 436.80 461.80 L 436.90 463.30 L 437.90 466.40 L 440.30 468.60 L 535.70 523.90 L 569.80 543.30 L 572.30 543.40 L 573.50 543.10 L 574.50 541.90 L 574.80 541.00 L 574.70 539.40 L 573.70 536.50 L 572.20 534.70 L 570.20 533.20 L 442.10 459.20 Z" fill="#90b9f6" fill-rule="nonzero" group-id="5,25,35,46" id="路径_1452-3" node-id="102" stroke="none" target-height="84.70001" target-width="138" target-x="436.8" target-y="458.7"></path><path d="M 440.10 461.20 L 438.00 460.70 L 435.90 461.20 L 435.20 462.10 L 434.80 463.80 L 434.90 465.30 L 435.90 468.40 L 438.30 470.60 L 533.70 525.90 L 567.80 545.30 L 570.30 545.40 L 571.50 545.10 L 572.50 543.90 L 572.80 543.00 L 572.70 541.40 L 571.70 538.50 L 570.20 536.70 L 568.20 535.20 L 440.10 461.20 Z" fill="#c6ddff" fill-rule="nonzero" group-id="5,25,35" id="路径_1453-3" node-id="103" stroke="none" target-height="84.70001" target-width="138" target-x="434.8" target-y="460.7"></path><path d="M 333.10 564.20 L 329.90 563.80 L 328.90 564.20 L 328.20 565.10 L 327.90 568.30 L 328.90 571.40 L 329.90 572.60 L 335.70 576.30 L 356.60 588.20 L 393.90 609.00 L 396.40 609.10 L 397.60 608.70 L 398.60 607.60 L 398.80 605.10 L 398.50 603.60 L 397.80 602.20 L 396.30 600.40 L 394.30 598.90 L 390.00 596.40 L 333.10 564.20 Z" fill="#90b9f6" fill-rule="nonzero" group-id="5,25,36,47" id="路径_1452-4" node-id="105" stroke="none" target-height="45.299988" target-width="70.899994" target-x="327.9" target-y="563.8"></path><path d="M 333.10 567.20 L 329.90 566.80 L 328.90 567.20 L 328.20 568.10 L 327.90 571.30 L 328.90 574.40 L 329.90 575.60 L 335.70 579.30 L 356.60 591.20 L 393.90 612.00 L 396.40 612.10 L 397.60 611.70 L 398.60 610.60 L 398.80 608.10 L 398.50 606.60 L 397.80 605.20 L 396.30 603.40 L 394.30 601.90 L 390.00 599.40 L 333.10 567.20 Z" fill="#c6ddff" fill-rule="nonzero" group-id="5,25,36,48" id="路径_1492" node-id="106" stroke="none" target-height="45.299988" target-width="70.899994" target-x="327.9" target-y="566.8"></path><path d="M 440.10 431.60 L 436.90 431.20 L 435.90 431.60 L 435.20 432.50 L 434.90 435.70 L 435.90 438.70 L 436.90 440.00 L 442.70 443.60 L 463.60 455.50 L 500.90 476.40 L 503.40 476.50 L 504.60 476.10 L 505.60 475.00 L 505.80 472.50 L 505.50 471.00 L 504.80 469.60 L 503.30 467.80 L 501.30 466.30 L 497.00 463.80 L 440.10 431.60 Z" fill="#2fcca4" fill-rule="nonzero" group-id="5,25,37,49" id="路径_1452-5" node-id="108" stroke="none" target-height="45.299988" target-width="70.899994" target-x="434.9" target-y="431.2"></path><path d="M 440.10 434.60 L 436.90 434.20 L 435.90 434.60 L 435.20 435.50 L 434.90 438.70 L 435.90 441.70 L 436.90 443.00 L 442.70 446.60 L 463.60 458.50 L 500.90 479.40 L 503.40 479.50 L 504.60 479.10 L 505.60 478.00 L 505.80 475.50 L 505.50 474.00 L 504.80 472.60 L 503.30 470.80 L 501.30 469.30 L 497.00 466.80 L 440.10 434.60 Z" fill="#78e6cc" fill-rule="nonzero" group-id="5,25,37,50" id="路径_1492-2" node-id="109" stroke="none" target-height="45.299988" target-width="70.899994" target-x="434.9" target-y="434.2"></path><path d="M 440.10 401.60 L 436.90 401.20 L 435.90 401.60 L 435.20 402.50 L 434.90 405.70 L 435.90 408.70 L 436.90 410.00 L 442.70 413.60 L 463.60 425.50 L 500.90 446.40 L 503.40 446.50 L 504.60 446.10 L 505.60 445.00 L 505.80 442.50 L 505.50 441.00 L 504.80 439.60 L 503.30 437.80 L 501.30 436.30 L 497.00 433.80 L 440.10 401.60 Z" fill="#90b9f6" fill-rule="nonzero" group-id="5,25,38,51" id="路径_1452-6" node-id="111" stroke="none" target-height="45.299988" target-width="70.899994" target-x="434.9" target-y="401.2"></path><path d="M 440.10 404.60 L 436.90 404.20 L 435.90 404.60 L 435.20 405.50 L 434.90 408.70 L 435.90 411.70 L 436.90 413.00 L 442.70 416.60 L 463.60 428.50 L 500.90 449.40 L 503.40 449.50 L 504.60 449.10 L 505.60 448.00 L 505.80 445.50 L 505.50 444.00 L 504.80 442.60 L 503.30 440.80 L 501.30 439.30 L 497.00 436.80 L 440.10 404.60 Z" fill="#c6ddff" fill-rule="nonzero" group-id="5,25,38,52" id="路径_1492-3" node-id="112" stroke="none" target-height="45.299988" target-width="70.899994" target-x="434.9" target-y="404.2"></path><path d="M 440.10 373.60 L 436.90 373.20 L 435.90 373.60 L 435.20 374.50 L 434.90 377.70 L 435.90 380.70 L 436.90 382.00 L 442.70 385.60 L 463.60 397.50 L 500.90 418.40 L 503.40 418.50 L 504.60 418.10 L 505.60 417.00 L 505.80 414.50 L 505.50 413.00 L 504.80 411.60 L 503.30 409.80 L 501.30 408.30 L 497.00 405.80 L 440.10 373.60 Z" fill="#2fcca4" fill-rule="nonzero" group-id="5,25,39,53" id="路径_1452-7" node-id="114" stroke="none" target-height="45.299988" target-width="70.899994" target-x="434.9" target-y="373.2"></path><path d="M 440.10 376.60 L 436.90 376.20 L 435.90 376.60 L 435.20 377.50 L 434.90 380.70 L 435.90 383.70 L 436.90 385.00 L 442.70 388.60 L 463.60 400.50 L 500.90 421.40 L 503.40 421.50 L 504.60 421.10 L 505.60 420.00 L 505.80 417.50 L 505.50 416.00 L 504.80 414.60 L 503.30 412.80 L 501.30 411.30 L 497.00 408.80 L 440.10 376.60 Z" fill="#78e6cc" fill-rule="nonzero" group-id="5,25,39,54" id="路径_1492-4" node-id="115" stroke="none" target-height="45.299988" target-width="70.899994" target-x="434.9" target-y="376.2"></path><path d="M 521.50 413.30 L 521.80 462.20 L 522.10 467.90 L 522.90 470.50 L 523.70 471.80 L 525.20 472.90 L 572.70 503.20 L 575.20 502.30 L 577.40 500.70 L 577.70 499.60 L 578.40 448.20 L 577.80 444.80 L 576.10 441.00 L 574.70 439.30 L 572.70 437.70 L 528.00 411.80 L 525.80 411.20 L 523.00 411.50 L 522.20 411.90 L 521.50 413.30 Z" fill="#90b9f6" fill-rule="nonzero" group-id="5,26" id="路径_1493" node-id="116" stroke="none" target-height="92" target-width="56.900024" target-x="521.5" target-y="411.2"></path><path d="M 520.00 415.60 L 519.90 468.60 L 520.00 471.00 L 521.10 473.90 L 522.20 475.20 L 524.10 476.50 L 569.40 502.60 L 572.00 503.30 L 573.00 503.10 L 573.80 502.10 L 574.50 447.20 L 574.30 444.80 L 573.70 443.50 L 572.60 442.20 L 570.70 440.70 L 526.00 414.80 L 523.90 414.00 L 521.40 413.90 L 520.30 414.70 L 520.00 415.60 Z" fill="#c6ddff" fill-rule="nonzero" group-id="5,27" id="路径_1494" node-id="117" stroke="none" target-height="89.399994" target-width="54.599976" target-x="519.9" target-y="413.9"></path><path d="M 551.70 479.20 L 537.20 472.10 L 536.30 471.20 L 535.70 469.80 L 535.50 466.20 L 535.80 464.20 L 537.40 460.50 L 539.70 458.10 L 541.10 457.50 L 542.80 457.30 L 545.00 457.70 L 547.20 458.60 L 549.30 460.10 L 553.00 463.90 L 555.60 467.90 L 557.50 471.80 L 558.90 475.90 L 559.40 479.50 L 558.90 480.60 L 557.70 481.00 L 555.50 480.60 L 551.70 479.20 Z M 541.70 451.70 L 540.20 449.50 L 539.10 447.30 L 538.60 445.10 L 538.60 443.10 L 538.90 441.80 L 540.30 439.90 L 542.40 438.90 L 545.60 439.20 L 547.70 440.10 L 549.70 441.50 L 551.70 443.40 L 553.20 445.60 L 554.20 447.80 L 554.80 450.10 L 554.80 452.10 L 553.90 454.40 L 553.10 455.20 L 551.60 456.00 L 550.00 456.30 L 547.90 456.00 L 545.80 455.10 L 543.70 453.70 L 541.70 451.70 Z" fill="#ffffff" fill-rule="nonzero" group-id="5,28" id="联合_277" node-id="118" stroke="none" target-height="42.100006" target-width="23.900024" target-x="535.5" target-y="438.9"></path><path d="M 82.80 483.20 L 83.10 486.30 L 84.30 487.90 L 88.50 489.50 L 97.90 492.40 L 293.70 376.40 L 294.50 309.20 L 294.50 296.00 L 293.30 293.60 L 292.00 292.40 L 290.10 291.30 L 282.20 287.90 L 279.10 288.10 L 276.40 289.20 L 87.30 398.10 L 85.80 399.40 L 84.40 401.40 L 83.20 404.90 L 83.00 407.60 L 82.80 483.20 Z" fill="url(#linear-gradient-13)" fill-rule="nonzero" group-id="6,29" id="路径_1438" node-id="120" stroke="none" target-height="204.5" target-width="211.7" target-x="82.8" target-y="287.9"></path><path d="M 95.80 413.30 L 96.00 410.50 L 96.60 408.90 L 97.70 407.00 L 100.10 404.60 L 102.10 403.40 L 290.30 295.70 L 292.50 295.70 L 293.50 296.20 L 294.20 297.10 L 294.60 298.70 L 294.80 372.20 L 294.80 374.30 L 293.60 378.30 L 291.30 381.70 L 289.70 383.10 L 247.70 407.60 L 108.30 488.00 L 102.50 491.30 L 99.50 492.70 L 97.90 493.10 L 96.20 492.70 L 95.70 490.80 L 95.80 413.30 Z" fill="url(#linear-gradient-14)" fill-rule="nonzero" group-id="6,30" id="路径_1439" node-id="121" stroke="none" target-height="197.4" target-width="199.09999" target-x="95.7" target-y="295.7"></path><path d="M 134.40 409.90 L 133.50 410.80 L 132.60 413.00 L 132.80 415.40 L 133.30 416.50 L 134.10 417.30 L 135.10 417.60 L 137.40 417.10 L 139.30 416.20 L 260.30 346.00 L 262.10 343.90 L 262.80 342.60 L 263.40 340.00 L 263.10 338.80 L 262.50 337.90 L 260.70 337.10 L 259.10 337.30 L 257.00 338.40 L 166.50 390.90 L 134.40 409.90 Z" fill="#e8ebff" fill-rule="nonzero" group-id="6,31,40" id="路径_1440" node-id="123" stroke="none" target-height="80.5" target-width="130.79999" target-x="132.6" target-y="337.1"></path><path d="M 135.40 411.90 L 134.50 412.80 L 133.60 415.00 L 133.80 417.40 L 134.30 418.50 L 135.10 419.30 L 136.10 419.60 L 138.40 419.10 L 140.30 418.20 L 261.30 348.00 L 263.10 345.90 L 263.80 344.60 L 264.40 342.00 L 264.10 340.80 L 263.50 339.90 L 261.70 339.10 L 260.10 339.30 L 258.00 340.40 L 167.50 392.90 L 135.40 411.90 Z" fill="#ffffff" fill-rule="nonzero" group-id="6,31,41" id="路径_1441" node-id="124" stroke="none" target-height="80.5" target-width="130.79999" target-x="133.6" target-y="339.1"></path><path d="M 132.40 437.90 L 131.50 438.80 L 130.60 441.00 L 130.80 443.40 L 131.30 444.50 L 132.10 445.30 L 133.10 445.60 L 135.40 445.10 L 137.30 444.20 L 242.60 383.90 L 244.50 381.70 L 245.20 380.40 L 245.80 377.80 L 245.50 376.60 L 244.80 375.70 L 243.10 374.90 L 241.50 375.20 L 239.40 376.20 L 160.50 421.40 L 132.40 437.90 Z" fill="#e8ebff" fill-rule="nonzero" group-id="6,32,42" id="路径_1441-2" node-id="126" stroke="none" target-height="70.70001" target-width="115.2" target-x="130.6" target-y="374.9"></path><path d="M 134.40 439.90 L 133.50 440.80 L 132.60 443.00 L 132.80 445.40 L 133.30 446.50 L 134.10 447.30 L 135.10 447.60 L 137.40 447.10 L 139.30 446.20 L 244.60 385.90 L 246.50 383.70 L 247.20 382.40 L 247.80 379.80 L 247.50 378.60 L 246.80 377.70 L 245.10 376.90 L 243.50 377.20 L 241.40 378.20 L 162.50 423.40 L 134.40 439.90 Z" fill="#ffffff" fill-rule="nonzero" group-id="6,32,43" id="路径_1442" node-id="127" stroke="none" target-height="70.70001" target-width="115.2" target-x="132.6" target-y="376.9"></path></g></svg>