
<?xml version="1.0" standalone="no"?>
<!DOCTYPE svg PUBLIC "-//W3C//DTD SVG 1.1//EN" "http://www.w3.org/Graphics/SVG/1.1/DTD/svg11.dtd" >
<svg xmlns="http://www.w3.org/2000/svg">
<defs>
  <font id="t" horiz-adv-x="1109.3333333333333">
    <font-face font-family="t"
      units-per-em="1024" ascent="1024"
      descent="0" />
    <missing-glyph horiz-adv-x="0" />
    <glyph glyph-name="activity"
      unicode="&#xE001;"
      horiz-adv-x="1024" d="M938.6666666666666 938.6666666666666H85.3333333333333V85.3333333333334H938.6666666666666V938.6666666666666zM853.3333333333333 853.3333333333334V554.6666666666667H744.3541333333333L658.1333333333333 416.7125333333334L407.8848 750.37568L236.6391466666667 554.6666666666667H170.6666666666667V853.3333333333334H853.3333333333333zM170.6666666666667 469.3333333333334H275.3608533333333L402.7818666666667 614.9576533333334L664.5333333333333 265.9541333333334L791.6458666666667 469.3333333333334H853.3333333333333V170.6666666666668H170.6666666666667V469.3333333333334z" />
    <glyph glyph-name="add-and-subtract"
      unicode="&#xE002;"
      horiz-adv-x="1024" d="M554.6666666666666 981.3333333333334V640H896V554.6666666666667H554.6666666666666L554.6666666666666 213.3333333333334H469.3333333333333V554.6666666666667H128V640H469.3333333333333V981.3333333333334L554.6666666666666 981.3333333333334zM128 170.6666666666668L896 170.6666666666668V85.3333333333334L128 85.3333333333334L128 170.6666666666668z" />
    <glyph glyph-name="add-circle"
      unicode="&#xE003;"
      horiz-adv-x="1024" d="M512 896C299.9227733333334 896 128 724.0772266666667 128 512C128 299.9210666666667 299.9227733333334 128 512 128C724.0789333333333 128 896 299.9210666666667 896 512C896 724.0772266666667 724.0789333333333 896 512 896zM42.6666666666667 512C42.6666666666667 771.2055466666667 252.7944533333334 981.3333333333334 512 981.3333333333334C771.2042666666666 981.3333333333334 981.3333333333331 771.2055466666667 981.3333333333331 512C981.3333333333331 252.7957333333334 771.2042666666666 42.6666666666667 512 42.6666666666667C252.7944533333334 42.6666666666667 42.6666666666667 252.7957333333334 42.6666666666667 512zM554.6666666666666 746.6666666666667L554.6666666666666 554.6666666666667H746.6666666666666V469.3333333333334H554.6666666666666L554.6666666666666 277.3333333333334H469.3333333333333L469.3333333333333 469.3333333333334H277.3333333333333V554.6666666666667H469.3333333333333L469.3333333333333 746.6666666666667H554.6666666666666z" />
    <glyph glyph-name="add-rectangle"
      unicode="&#xE004;"
      horiz-adv-x="1024" d="M85.3333333333333 938.6666666666666H938.6666666666666V85.3333333333334L85.3333333333333 85.3333333333334V938.6666666666666zM170.6666666666667 853.3333333333334V170.6666666666668L853.3333333333333 170.6666666666668V853.3333333333334H170.6666666666667zM554.6666666666666 746.6666666666667V554.6666666666667H746.6666666666666V469.3333333333334H554.6666666666666V277.3333333333334H469.3333333333333V469.3333333333334L277.3333333333333 469.3333333333334V554.6666666666667L469.3333333333333 554.6666666666667V746.6666666666667H554.6666666666666z" />
    <glyph glyph-name="add"
      unicode="&#xE005;"
      horiz-adv-x="1024" d="M554.6666666666666 853.3333333333334V554.6666666666667L853.3333333333333 554.6666666666667V469.3333333333334L554.6666666666666 469.3333333333334V170.6666666666668H469.3333333333333L469.3333333333333 469.3333333333334H170.6666666666667L170.6666666666667 554.6666666666667L469.3333333333333 554.6666666666667L469.3333333333333 853.3333333333334L554.6666666666666 853.3333333333334z" />
    <glyph glyph-name="address-book"
      unicode="&#xE006;"
      horiz-adv-x="1024" d="M128 768C128 862.2566400000001 204.4100266666667 938.6666666666666 298.6666666666667 938.6666666666666H896V85.3333333333334H298.6666666666667C204.4100266666667 85.3333333333334 128 161.7450666666667 128 256V768zM213.3333333333333 403.8357333333334C238.4362666666667 418.3552 267.5810133333333 426.6666666666668 298.6666666666667 426.6666666666668H810.6666666666666V853.3333333333334H725.3333333333333V564.6421333333334L576 654.24256L426.6666666666667 564.6421333333334V853.3333333333334H298.6666666666667C251.5383466666667 853.3333333333334 213.3333333333333 815.12832 213.3333333333333 768V403.8357333333334zM810.6666666666666 341.3333333333334H298.6666666666667C251.5383466666667 341.3333333333334 213.3333333333333 303.1296000000001 213.3333333333333 256C213.3333333333333 208.8704 251.5383466666667 170.6666666666668 298.6666666666667 170.6666666666668H810.6666666666666V341.3333333333334zM640 853.3333333333334H512V715.35744L576 753.7574400000001L640 715.35744V853.3333333333334z" />
    <glyph glyph-name="adjustment"
      unicode="&#xE007;"
      horiz-adv-x="1024" d="M341.3333333333333 853.3333333333334C317.7693866666667 853.3333333333334 298.6666666666667 834.2306133333334 298.6666666666667 810.6666666666667C298.6666666666667 787.1027200000001 317.7693866666667 768 341.3333333333333 768C364.89728 768 384 787.1027200000001 384 810.6666666666667C384 834.2306133333334 364.8977066666667 853.3333333333334 341.3333333333333 853.3333333333334zM220.61696 853.3333333333334C238.1883733333333 903.0481066666666 285.60128 938.6666666666666 341.3333333333333 938.6666666666666C397.0653866666667 938.6666666666666 444.48 903.0481066666666 462.0501333333333 853.3333333333334L938.6666666666666 853.3333333333334V768L462.0501333333333 768C444.48 718.2852266666666 397.0653866666667 682.6666666666667 341.3333333333333 682.6666666666667C285.60128 682.6666666666667 238.1883733333333 718.2852266666666 220.61696 768L85.3333333333333 768L85.3333333333333 853.3333333333334L220.61696 853.3333333333334zM561.9498666666666 554.6666666666667C579.52 604.3814400000001 626.9354666666666 640 682.6666666666666 640C738.3978666666667 640 785.8133333333333 604.3814400000001 803.3834666666667 554.6666666666667H938.6666666666666V469.3333333333334H803.3834666666667C785.8133333333333 419.6181333333334 738.3978666666667 384 682.6666666666666 384C626.9354666666666 384 579.52 419.6181333333334 561.9498666666666 469.3333333333334L85.3333333333333 469.3333333333334L85.3333333333333 554.6666666666667L561.9498666666666 554.6666666666667zM682.6666666666666 554.6666666666667C659.1018666666666 554.6666666666667 640 535.5648000000001 640 512C640 488.4352 659.1018666666666 469.3333333333334 682.6666666666666 469.3333333333334C706.2314666666666 469.3333333333334 725.3333333333333 488.4352 725.3333333333333 512C725.3333333333333 535.5648000000001 706.2314666666666 554.6666666666667 682.6666666666666 554.6666666666667zM341.3333333333333 256C317.7693866666667 256 298.6666666666667 236.8981333333334 298.6666666666667 213.3333333333334C298.6666666666667 189.7685333333334 317.7693866666667 170.6666666666668 341.3333333333333 170.6666666666668C364.89728 170.6666666666668 384 189.7685333333334 384 213.3333333333334C384 236.8981333333334 364.8977066666667 256 341.3333333333333 256zM220.61696 256C238.1883733333333 305.7152 285.60128 341.3333333333334 341.3333333333333 341.3333333333334C397.0653866666667 341.3333333333334 444.48 305.7152 462.0501333333333 256L938.6666666666666 256V170.6666666666668L462.0501333333333 170.6666666666668C444.48 120.9514666666668 397.0653866666667 85.3333333333334 341.3333333333333 85.3333333333334C285.60128 85.3333333333334 238.1883733333333 120.9514666666668 220.61696 170.6666666666668H85.3333333333333V256H220.61696z" />
    <glyph glyph-name="airplay-wave"
      unicode="&#xE008;"
      horiz-adv-x="1024" d="M42.6666666666667 896L981.3376 896L981.3376 170.6666666666668L746.6709333333333 170.6666666666668L746.6709333333333 256L896.0042666666666 256L896.0042666666666 810.6666666666667L128.0055466666667 810.6666666666667L128.04224 256H277.33632V170.6666666666668H42.7144533333333L42.6666666666667 896zM723.2170666666666 452.9962666666668C606.5791999999999 569.6341333333334 417.47584 569.6341333333334 300.8392533333333 452.9962666666668L270.6696533333333 422.8266666666667L210.3296 483.1658666666667L240.4996266666667 513.3354666666667C390.4610133333333 663.2981333333333 633.5957333333333 663.2981333333333 783.5562666666666 513.3354666666667L813.7258666666667 483.1658666666667L753.3866666666665 422.8266666666667L723.2170666666666 452.9962666666668zM602.5258666666666 332.3306666666668C552.5376 382.3189333333334 471.4922666666666 382.3189333333334 421.5061333333333 332.3306666666668L391.3361066666667 302.1610666666668L330.99648 362.5002666666667L361.16608 392.6698666666668C444.48 475.9808 579.5541333333333 475.9808 662.8650666666666 392.6698666666668L693.0346666666666 362.5002666666667L632.6954666666666 302.1610666666668L602.5258666666666 332.3306666666668zM512.0042666666666 252.3392000000001L679.0101333333333 85.3333333333334L344.9962666666667 85.3333333333334L512.0042666666666 252.3392000000001z" />
    <glyph glyph-name="alarm-add"
      unicode="&#xE009;"
      horiz-adv-x="1024" d="M295.0126933333334 917.3320533333334L64.0064 686.32576L3.6666666666667 746.6653866666667L234.6730666666667 977.67168L295.0126933333334 917.3320533333334zM789.3418666666666 977.67168L1020.3477333333332 746.6653866666667L960.0085333333332 686.32576L728.9984 917.3320533333334L789.3418666666666 977.67168zM512.0085333333333 810.6653866666667C323.49312 810.6653866666667 170.6730666666667 657.8453333333334 170.6730666666667 469.3333333333334C170.6730666666667 280.8192000000002 323.49312 128 512.0085333333333 128C700.5183999999999 128 853.3418666666666 280.8192000000002 853.3418666666666 469.3333333333334C853.3418666666666 657.8453333333334 700.5183999999999 810.6653866666667 512.0085333333333 810.6653866666667zM85.3397333333333 469.3333333333334C85.3397333333333 704.9736533333333 276.3648 895.99872 512.0085333333333 895.99872C747.6479999999999 895.99872 938.6752 704.9736533333333 938.6752 469.3333333333334C938.6752 233.6896000000001 747.6479999999999 42.6666666666667 512.0085333333333 42.6666666666667C276.3648 42.6666666666667 85.3397333333333 233.6896000000001 85.3397333333333 469.3333333333334zM554.6751999999999 682.6653866666667V512H725.3418666666666V426.6666666666668H554.6751999999999V256H469.3418666666666V426.6666666666668H298.6730666666666V512H469.3418666666666V682.6653866666667H554.6751999999999z" />
    <glyph glyph-name="alarm-off"
      unicode="&#xE00A;"
      horiz-adv-x="1024" d="M3.6666666666667 746.6653866666667L110.3389866666667 853.3376000000001L25.0113706666667 938.6653866666666L85.3512533333333 999.0052266666665L170.6786133333333 913.6776533333332L234.6730666666667 977.67168L295.0126933333334 917.3320533333334L231.0186666666667 853.3376000000001L999.0229333333332 85.3333333333334L938.6837333333332 24.9941333333334L804.7445333333333 158.9333333333334C728.3797333333333 86.8949333333334 625.3397333333332 42.6666666666667 512.0085333333333 42.6666666666667C276.3648 42.6666666666667 85.3397333333333 233.6896000000001 85.3397333333333 469.3333333333334C85.3397333333333 582.6645333333333 129.568 685.7041066666667 201.6064 762.0706133333333L170.6786133333333 792.9979733333333L64.0064 686.32576L3.6666666666667 746.6653866666667zM261.9758933333333 701.70112C205.28 640.7338666666667 170.6730666666667 559.0912000000001 170.6730666666667 469.3333333333334C170.6730666666667 280.8192000000002 323.49312 128 512.0085333333333 128C601.7664 128 683.4090666666666 162.6069333333334 744.3754666666666 219.3024L261.9758933333333 701.70112zM365.2714666666667 872.3707733333333L406.624 882.8782933333333C440.3712 891.4530133333333 475.6821333333333 895.99872 511.9914666666667 895.99872C747.6351999999999 895.99872 938.6581333333334 704.9736533333333 938.6581333333334 469.3333333333334C938.6581333333334 433.0197333333333 934.1141333333333 397.7088000000001 925.5381333333332 363.9637333333334L915.0293333333334 322.6112000000001L832.3242666666666 343.6245333333334L842.8330666666667 384.9770666666667C849.6768 411.9125333333334 853.3248 440.1664000000001 853.3248 469.3333333333334C853.3248 657.8453333333334 700.5056 810.6653866666667 511.9914666666667 810.6653866666667C482.8245333333333 810.6653866666667 454.5749333333333 807.01696 427.6394666666667 800.1732266666667L386.2865066666667 789.6657066666667L365.2714666666667 872.3707733333333zM789.3418666666666 977.67168L1020.3477333333332 746.6653866666667L960.0085333333332 686.32576L728.9984 917.3320533333334L789.3418666666666 977.67168z" />
    <glyph glyph-name="alarm"
      unicode="&#xE00B;"
      horiz-adv-x="1024" d="M295.0126933333334 917.3320533333334L64.0064 686.32576L3.6666666666667 746.6653866666667L234.6730666666667 977.67168L295.0126933333334 917.3320533333334zM789.3418666666666 977.67168L1020.3477333333332 746.6653866666667L960.0085333333332 686.32576L728.9984 917.3320533333334L789.3418666666666 977.67168zM512.0085333333333 810.6653866666667C323.49312 810.6653866666667 170.6730666666667 657.8453333333334 170.6730666666667 469.3333333333334C170.6730666666667 280.8192000000002 323.49312 128 512.0085333333333 128C700.5183999999999 128 853.3418666666666 280.8192000000002 853.3418666666666 469.3333333333334C853.3418666666666 657.8453333333334 700.5183999999999 810.6653866666667 512.0085333333333 810.6653866666667zM85.3397333333333 469.3333333333334C85.3397333333333 704.9736533333333 276.3648 895.99872 512.0085333333333 895.99872C747.6479999999999 895.99872 938.6752 704.9736533333333 938.6752 469.3333333333334C938.6752 233.6896000000001 747.6479999999999 42.6666666666667 512.0085333333333 42.6666666666667C276.3648 42.6666666666667 85.3397333333333 233.6896000000001 85.3397333333333 469.3333333333334zM554.6751999999999 703.99872V487.0058666666666L700.3477333333333 341.3333333333334L640.0085333333333 280.9941333333334L469.3418666666666 451.6608000000001V703.99872H554.6751999999999z" />
    <glyph glyph-name="align-top"
      unicode="&#xE00C;"
      horiz-adv-x="1024" d="M128 896H170.6666666666667H853.3333333333333H896V810.6666666666667H853.3333333333333L170.6666666666667 810.6666666666667H128V896zM512 785.67296L481.8303999999999 755.50336L311.1633066666667 584.8362666666667L280.9937066666667 554.6666666666667L341.3333333333333 494.3274666666667L371.50336 524.4970666666667L469.3333333333333 622.3266133333334V435.9424V363.5925333333334V170.6666666666668V128H554.6666666666666V170.6666666666668V363.5925333333334V435.9424V622.32704L652.4970666666666 524.4970666666667L682.6666666666666 494.3274666666667L743.0058666666666 554.6666666666667L712.8362666666667 584.8362666666667L542.1696 755.50336L512 785.67296z" />
    <glyph glyph-name="align-vertical"
      unicode="&#xE00D;"
      horiz-adv-x="1024" d="M554.6666666666666 743.0062933333334V818.0868266666666V862.60864V981.3333333333334V1024H469.3333333333333V981.3333333333334V862.60864V818.0868266666666V743.0062933333334L414.1700266666667 798.1700266666667L384 828.3396266666666L323.6603733333334 768L353.8299733333334 737.8299733333333L481.8303999999999 609.8299733333333L512 579.6608000000001L542.1696 609.8299733333333L670.1696 737.8299733333333L700.3392 768L640 828.3396266666666L609.8303999999999 798.1700266666667L554.6666666666666 743.0062933333334zM896 469.3333333333334H853.3333333333333L170.6666666666667 469.3333333333334H128V554.6666666666667H170.6666666666667L853.3333333333333 554.6666666666667H896V469.3333333333334zM512 444.3392L542.1696 414.1696000000001L670.1696 286.1696000000001L700.3392 256L640 195.6608L609.8303999999999 225.8304000000001L554.6666666666666 280.9941333333334V205.9136000000001V161.3909333333334V42.6666666666667V0H469.3333333333333V42.6666666666667V161.3909333333334V205.9136000000001V280.9941333333334L414.1700266666667 225.8304000000001L384 195.6608L323.6603733333334 256L353.8299733333334 286.1696000000001L481.8303999999999 414.1696000000001L512 444.3392z" />
    <glyph glyph-name="alpha"
      unicode="&#xE00E;"
      horiz-adv-x="1024" d="M597.3376 938.6666666666666V773.7245866666667L824.9984 911.94752L869.2864 839.00544L597.3376 673.8944V307.4389333333334L869.2864 142.3274666666666L824.9984 69.3845333333334L597.3376 207.6074666666667V85.3333333333334H512.0042666666666V259.4176000000001L131.1249066666667 490.6666666666667L512.0042666666666 721.91488V938.6666666666666H597.3376zM512.0042666666666 622.0851200000001L295.55072 490.6666666666667L512.0042666666666 359.2490666666668V622.0851200000001z" />
    <glyph glyph-name="analytics"
      unicode="&#xE00F;"
      horiz-adv-x="1024" d="M85.3333333333333 938.6666666666666H938.6666666666666V85.3333333333334H85.3333333333333V938.6666666666666zM170.6666666666667 853.3333333333334V170.6666666666668H853.3333333333333V853.3333333333334H170.6666666666667zM768 682.6666666666667V554.6666666666667H682.6666666666666V682.6666666666667H768zM554.6666666666666 597.3333333333334V469.3333333333334H469.3333333333333V597.3333333333334H554.6666666666666zM341.3333333333333 512V256H256V512H341.3333333333333zM768 469.3333333333334V256H682.6666666666666V469.3333333333334H768zM554.6666666666666 384V256H469.3333333333333V384H554.6666666666666z" />
    <glyph glyph-name="anchor"
      unicode="&#xE010;"
      horiz-adv-x="1024" d="M511.9872 896C464.8575999999999 896 426.65216 857.7949866666667 426.65216 810.6666666666667C426.65216 763.5383466666667 464.8575999999999 725.3333333333334 511.9872 725.3333333333334C559.1125333333333 725.3333333333334 597.3205333333333 763.5383466666667 597.3205333333333 810.6666666666667C597.3205333333333 857.7949866666667 559.1125333333333 896 511.9872 896zM341.3188266666667 810.6666666666667C341.3188266666667 904.9233066666666 417.7288533333334 981.3333333333334 511.9872 981.3333333333334C606.2421333333333 981.3333333333334 682.6538666666667 904.9233066666666 682.6538666666667 810.6666666666667C682.6538666666667 731.1428266666667 628.2624 664.3225600000001 554.6538666666667 645.3768533333334V576H746.6538666666667V490.6666666666667H554.6538666666667V129.7920000000002C688.3327999999999 141.1968000000001 795.4304 206.4384 844.8938666666666 310.1866666666667L792.4181333333332 362.6666666666668L965.1157333333334 535.3685333333334L959.3642666666666 424.4565333333334C946.7818666666668 181.7514666666666 744.7423999999999 42.6666666666667 511.9743999999999 42.6666666666667C279.2093866666667 42.6666666666667 77.1694933333333 181.7514666666666 64.5845333333333 424.4565333333334L58.8334933333333 535.3685333333334L231.5336533333333 362.6666666666668L179.0557866666667 310.1866666666667C228.5218133333333 206.4341333333334 335.6245333333333 141.1925333333334 469.3077333333333 129.7920000000002V213.3333333333334L469.3205333333333 490.6666666666667H277.3188266666667V576H469.3205333333333V645.3768533333334C395.7090133333334 664.3225600000001 341.3188266666667 731.1428266666667 341.3188266666667 810.6666666666667z" />
    <glyph glyph-name="angry"
      unicode="&#xE011;"
      horiz-adv-x="1024" d="M512 896C299.9227733333334 896 128 724.0772266666667 128 512C128 299.9210666666667 299.9227733333334 128 512 128C724.0789333333333 128 896 299.9210666666667 896 512C896 724.0772266666667 724.0789333333333 896 512 896zM42.6666666666667 512C42.6666666666667 771.2055466666667 252.7944533333334 981.3333333333334 512 981.3333333333334C771.2042666666666 981.3333333333334 981.3333333333331 771.2055466666667 981.3333333333331 512C981.3333333333331 252.7957333333334 771.2042666666666 42.6666666666667 512 42.6666666666667C252.7944533333334 42.6666666666667 42.6666666666667 252.7957333333334 42.6666666666667 512zM288.7995733333334 676.9506133333334L436.5994666666666 591.616L393.9345066666666 517.7173333333334L246.1329066666667 603.0493866666667L288.7995733333334 676.9506133333334zM777.9328 603.0493866666667L630.1312 517.7173333333334L587.4645333333333 591.616L735.2661333333333 676.9506133333334L777.9328 603.0493866666667zM327.2341333333333 362.6965333333334C364.0558933333333 426.3509333333334 432.9856 469.3333333333334 512 469.3333333333334C591.0186666666666 469.3333333333334 659.9466666666666 426.3509333333334 696.768 362.6965333333334L718.1311999999999 325.7642666666668L644.2666666666667 283.0378666666668L622.9034666666666 319.9701333333335C600.7082666666666 358.3402666666667 559.3258666666666 384 512 384C464.6784 384 423.2955733333333 358.3402666666667 401.0990933333333 319.9701333333335L379.7350400000001 283.0378666666668L305.8696533333333 325.7642666666668L327.2341333333333 362.6965333333334z" />
    <glyph glyph-name="animation-1"
      unicode="&#xE012;"
      horiz-adv-x="983.04" d="M467.369984 1021.519998976L619.548672 768.6541311999999L907.063296 702.0654592000001L713.601024 479.1951359999999L739.115008 185.176064L467.369984 300.3023360000001L195.6274176 185.176064L221.1442688 479.1951359999999L27.67998976 702.0654592000001L315.1949824 768.6541311999999L467.369984 1021.519998976zM467.369984 862.6479104L367.489024 696.6775808L178.7764736 652.9712128L305.758208 506.687488L289.0100736 313.708544L467.369984 389.2715520000001L645.7344 313.708544L628.985856 506.687488L755.965952 652.9712128L567.25504 696.6775808L467.369984 862.6479104zM854.564864 450.093056L955.932672 348.725248L898.00704 290.7996159999999L796.6392320000001 392.167424L854.564864 450.093056zM514.72384 199.614464L616.095744 98.2425599999999L558.170112 40.3169280000001L456.798208 141.6888319999999L514.72384 199.614464zM784.162816 199.614464L885.53472 98.2425599999999L827.609088 40.3169280000001L726.237184 141.6888319999999L784.162816 199.614464z" />
    <glyph glyph-name="animation"
      unicode="&#xE013;"
      horiz-adv-x="1024" d="M473.1477333333333 723.0314666666667L477.8837333333333 742.6581333333334C478.6432 745.25824 479.4538666666666 747.8382933333334 480.3072 750.39616L496.1408 786.2766933333334C532.5696 851.7239466666667 602.4490666666666 896 682.6666666666666 896C800.4863999999999 896 896 800.4872533333333 896 682.6666666666667C896 597.1754666666667 845.7088 523.4261333333334 773.0986666666665 489.3952L750.3573333333334 480.2944C748.7061333333332 479.744 747.0506666666666 479.2149333333334 745.3866666666665 478.7029333333334L723.5669333333333 473.2501333333333C710.3274666666666 470.6816 696.6528 469.3333333333334 682.6666666666666 469.3333333333334C564.8469333333333 469.3333333333334 469.3333333333333 564.8469333333334 469.3333333333333 682.6666666666667C469.3333333333333 696.4667733333333 470.6432 709.96096 473.1477333333333 723.0314666666667zM404.0861866666667 790.5681066666667C325.9643733333333 760.2833066666667 263.7149866666666 698.0706133333333 233.4165333333333 619.90016C121.8581333333334 576.6528000000001 42.6666666666667 468.2965333333334 42.6666666666667 341.3376000000001C42.6666666666667 176.3882666666667 176.3844266666667 42.6709333333333 341.3333333333333 42.6709333333333C468.2837333333333 42.6709333333333 576.64 121.8517333333333 619.8954666666666 233.4208000000001C625.5274666666667 235.6053333333333 631.0741333333333 237.9520000000001 636.5354666666666 240.4608000000001L650.9610666666666 246.2293333333335L650.5216 247.3344000000001C714.2101333333333 280.7424 764.3434666666667 336.4650666666667 790.5578666666667 404.0832000000001C796.2154666666667 406.2762666666668 801.792 408.6357333333334 807.2746666666667 411.1573333333334L821.6277333333334 416.8960000000001L821.1882666666667 417.9968C916.3861333333332 467.9253333333334 981.3333333333331 567.7098666666667 981.3333333333331 682.6666666666667C981.3333333333331 847.6155733333334 847.616 981.3333333333334 682.6666666666666 981.3333333333334C555.7674666666667 981.3333333333334 447.3514666666666 902.1892266666666 404.0861866666667 790.5681066666667zM682.6922666666666 384C661.7728 356.1557333333334 634.2016 333.6064 602.3509333333333 318.6944000000001L579.7845333333332 309.6661333333334C578.0693333333334 309.0944 576.3456 308.5397333333334 574.6090666666666 308.0064000000001L553.0069333333333 302.6090666666668C539.7333333333333 300.0234666666668 526.0245333333332 298.6709333333333 512 298.6709333333333C394.1794133333334 298.6709333333333 298.6666666666667 394.1845333333333 298.6666666666667 512.0042666666667C298.6666666666667 525.7984 299.9765333333334 539.2896000000001 302.4789333333333 552.3584000000001L307.2200533333334 572.0021333333334C307.9786666666667 574.5962666666667 308.7854933333333 577.1690666666667 309.6392533333334 579.7205333333334L325.4869333333333 615.6437333333333C340.1032533333334 641.8965333333333 360.1024 664.74752 384 682.6990933333334C384 682.6884266666667 384 682.6773333333333 384 682.6666666666667C384 517.7173333333334 517.7173333333333 384 682.6666666666666 384C682.6751999999999 384 682.6837333333333 384 682.6922666666666 384zM213.3333333333333 512.0341333333333C213.3333333333333 512.0213333333334 213.3333333333333 512.0128 213.3333333333333 512.0042666666667C213.3333333333333 347.0549333333334 347.0510933333333 213.3376000000001 512 213.3376000000001C512.0085333333333 213.3376000000001 512.0170666666667 213.3376000000001 512.0298666666666 213.3376000000001C473.088 161.5018666666667 411.09248 128.0042666666667 341.3333333333333 128.0042666666667C223.5127466666667 128.0042666666667 128 223.5178666666668 128 341.3376000000001C128 411.0933333333334 161.4941866666667 473.0922666666668 213.3333333333333 512.0341333333333z" />
    <glyph glyph-name="anticlockwise"
      unicode="&#xE014;"
      horiz-adv-x="1024" d="M184.89088 810.6888533333333C184.9032533333333 881.3725866666666 242.2071466666667 938.6666666666666 312.89088 938.6666666666666H554.6837333333333V853.3333333333334H312.89088C289.32992 853.3333333333334 270.22848 834.2353066666667 270.2242133333333 810.67392L270.1764266666667 533.3333333333334H185.1720533333334L25.0000213333333 706.3189333333333L87.6142933333333 764.2952533333333L184.8648533333333 659.2644266666667L184.89088 810.6888533333333zM341.29536 768H981.2949333333332V128H341.29536V768zM426.6286933333334 682.6666666666667V213.3333333333334H895.9615999999999V682.6666666666667H426.6286933333334z" />
    <glyph glyph-name="api"
      unicode="&#xE015;"
      horiz-adv-x="1024" d="M25.0000213333333 512L213.3397333333333 700.3387733333334L273.6797866666667 639.9991466666668L145.67936 512L273.6797866666667 384L213.3397333333333 323.6608L25.0000213333333 512zM323.6663466666667 810.6653866666667L512.0042666666666 999.0052266666665L700.3477333333333 810.6653866666667L640.0042666666666 750.32576L512.0042666666666 878.32576L384.0064 750.3253333333333L323.6663466666667 810.6653866666667zM384.0064 273.6725333333334L512.0042666666666 145.6725333333334L640.0085333333333 273.6725333333334L700.3477333333333 213.3333333333334L512.0042666666666 24.9941333333334L323.6663466666667 213.3333333333334L384.0064 273.6725333333334zM469.2565333333333 469.248V554.7477333333334H554.7562666666666V469.248H469.2565333333333zM750.3317333333332 384L878.3317333333332 512L750.3317333333332 639.99872L810.6751999999999 700.3383466666667L999.0144 512L810.6751999999999 323.6608L750.3317333333332 384z" />
    <glyph glyph-name="app"
      unicode="&#xE016;"
      horiz-adv-x="1024" d="M85.3333333333333 938.6666666666666H469.3333333333333V554.6666666666667H85.3333333333333V938.6666666666666zM170.6666666666667 853.3333333333334V640H384V853.3333333333334H170.6666666666667zM746.6666666666666 853.3333333333334C687.7567999999999 853.3333333333334 640 805.57696 640 746.6666666666667C640 687.7563733333334 687.7567999999999 640 746.6666666666666 640C805.5765333333334 640 853.3333333333333 687.7563733333334 853.3333333333333 746.6666666666667C853.3333333333333 805.57696 805.5765333333334 853.3333333333334 746.6666666666666 853.3333333333334zM554.6666666666666 746.6666666666667C554.6666666666666 852.70528 640.6271999999999 938.6666666666666 746.6666666666666 938.6666666666666C852.7061333333332 938.6666666666666 938.6666666666666 852.70528 938.6666666666666 746.6666666666667C938.6666666666666 640.6280533333334 852.7061333333332 554.6666666666667 746.6666666666666 554.6666666666667C640.6271999999999 554.6666666666667 554.6666666666666 640.6280533333334 554.6666666666666 746.6666666666667zM85.3333333333333 469.3333333333334H469.3333333333333V85.3333333333334H85.3333333333333V469.3333333333334zM170.6666666666667 384V170.6666666666668H384V384H170.6666666666667zM554.6666666666666 469.3333333333334H938.6666666666666V85.3333333333334H554.6666666666666V469.3333333333334zM640 384V170.6666666666668H853.3333333333333V384H640z" />
    <glyph glyph-name="apple"
      unicode="&#xE017;"
      horiz-adv-x="1024" d="M554.6666666666666 938.6666666666666V836.0840533333334C556.8 836.4330666666667 558.9589333333333 836.79872 561.1477333333332 837.1780266666667C564.8853333333333 837.8257066666667 568.8149333333333 838.53696 572.9024 839.2759466666666C586.9013333333332 841.80864 602.6709333333333 844.66176 618.3168 846.3534933333333C662.0714666666667 851.0843733333334 710.1994666666666 847.63392 767.3386666666667 815.9876266666668C879.8250666666665 753.6861866666667 938.6666666666666 635.7516800000001 938.6666666666666 490.6624C938.6666666666666 308.0490666666667 823.0442666666665 136.5717333333335 674.6154666666666 87.9488C630.2293333333333 73.4080000000001 598.4554666666667 81.2970666666668 572.0149333333333 90.9994666666667C567.8506666666666 92.5312000000001 564.0277333333333 93.9861333333333 560.4437333333333 95.3514666666667C542.6730666666666 102.1269333333333 530.7733333333333 106.6624000000001 512 106.6624000000001C493.2522666666667 106.6624000000001 481.3738666666666 102.1269333333333 463.6117333333333 95.3429333333334C460.0192 93.9733333333334 456.1834666666667 92.5098666666667 452.0021333333333 90.9696000000001C425.5441066666666 81.2458666666666 393.73824 73.3525333333334 349.3290666666667 87.9658666666667C201.3243733333333 136.6784 85.3333333333333 307.9808000000001 85.3333333333333 490.6624C85.3333333333333 635.74272 144.1489066666667 753.5210666666667 256.62336 815.96416C313.792 847.7026133333334 361.93408 851.1616 405.70624 846.4059733333333C421.3444266666667 844.7069866666667 437.1114666666666 841.8436266666668 451.1018666666666 839.3028266666668C455.1935999999999 838.56 459.1317333333333 837.84448 462.8693333333333 837.19424C465.0538666666666 836.8145066666667 467.2042666666667 836.4484266666667 469.3333333333333 836.0989866666666V938.6666666666666H554.6666666666666zM469.3333333333333 749.7966933333333C461.9946666666666 750.8002133333333 454.9589333333333 751.9552 448.2432 753.1234133333334C443.1402666666667 754.0117333333334 438.336 754.88256 433.7322666666667 755.7166933333333C420.4309333333333 758.12736 408.8149333333334 760.2325333333333 396.4893866666667 761.5718400000001C366.66112 764.8128 336.9156266666667 762.9384533333334 298.0433066666667 741.3572266666667C218.4366933333333 697.1618133333334 170.6666666666667 611.95136 170.6666666666667 490.6624C170.6666666666667 338.9184 268.30848 204.4714666666668 376.0042666666667 169.0240000000001C395.5579733333333 162.5898666666667 406.3675733333334 165.1114666666667 422.5595733333334 171.0634666666667C425.0282666666667 171.9722666666667 427.7333333333334 173.0304 430.6730666666666 174.1781333333333C448.9258666666666 181.3205333333334 476.2026666666666 191.9957333333334 512 191.9957333333334C547.7930666666666 191.9957333333334 575.0527999999999 181.3461333333334 593.3141333333333 174.2165333333335C596.2496 173.0688 598.9504 172.0149333333334 601.4208 171.1061333333335C617.6298666666667 165.1584 628.4714666666666 162.6282666666666 648.0512 169.0410666666667C755.9552 204.3904000000001 853.3333333333333 338.8458666666668 853.3333333333333 490.6624C853.3333333333333 612.0098133333333 805.5082666666667 697.3000533333334 725.9946666666666 741.33888C687.1338666666667 762.8629333333333 657.3568 764.7441066666667 627.4901333333332 761.5146666666667C615.1509333333333 760.1800533333334 603.5157333333333 758.0795733333333 590.1994666666667 755.6753066666668C585.6042666666666 754.8462933333333 580.8127999999999 753.9810133333333 575.7226666666666 753.09824C569.0154666666666 751.936 561.9925333333333 750.7869866666667 554.6666666666666 749.7881600000001V689.94304C562.1077333333333 692.5738666666666 569.2245333333333 695.87328 575.9616 699.7674666666667L612.8938666666666 721.12896L655.616 647.2605866666668L618.6837333333333 625.8990933333334C587.2725333333333 607.7316266666667 550.7882666666667 597.3333333333334 512 597.3333333333334C473.2117333333333 597.3333333333334 436.7274666666666 607.7312000000001 405.3154133333333 625.8990933333334L368.38144 647.2605866666668L411.1044266666667 721.12896L448.0384 699.7674666666667C454.7712 695.8728533333333 461.8922666666666 692.57344 469.3333333333333 689.9426133333334V749.7966933333333z" />
    <glyph glyph-name="application"
      unicode="&#xE018;"
      horiz-adv-x="1024" d="M512.0042666666666 987.9374933333334L924.1770666666666 749.9703466666667V274.0352000000001L512.0042666666666 36.0704000000001L99.8331733333333 274.0352000000001V749.9703466666667L512.0042666666666 987.9374933333334zM512.0042666666666 889.40288L185.1665066666666 700.7031466666667V323.3024000000001L512.0042666666666 134.6048000000001L838.8437333333333 323.3024000000001V700.7031466666667L512.0042666666666 889.40288zM372.1706666666667 656.5051733333333L512.0042666666666 563.2810666666667L651.8357333333333 656.5051733333333L699.1701333333333 585.5018666666667L554.6709333333333 489.1690666666667V341.3376000000001H469.3376V489.1690666666667L324.8362666666667 585.5018666666667L372.1706666666667 656.5051733333333z" />
    <glyph glyph-name="architecture-hui-style"
      unicode="&#xE019;"
      horiz-adv-x="1024" d="M546.1205333333332 964.26112L511.9872 1009.7708373333334L477.8538666666666 964.26112L477.7002666666666 964.0554666666666L477.184 963.3685333333332L475.0933333333333 960.6071466666668C473.2458666666666 958.17088 470.5066666666667 954.5728 466.9781333333333 949.9780266666666C459.9210666666667 940.7872 449.7194666666667 927.6219733333334 437.2010666666667 911.8097066666666C412.1309866666666 880.1425066666667 377.93152 838.0565333333334 341.2104533333333 796.0891733333333C304.3089066666667 753.91616 265.6708266666667 712.7978666666667 231.6407466666667 682.5493333333334C214.56896 667.37408 199.65568 655.8361600000001 187.4589866666667 648.33024C176.9655466666667 641.8730666666668 171.6795733333333 640.4168533333334 170.5745066666667 640.0887466666667C170.5745066666667 640.1092266666667 170.5745066666667 640.1301333333333 170.57408 640.15104L170.4162133333333 682.8177066666667L85.0833066666667 682.50112L85.2416 639.8348800000001C85.3056 622.5501866666667 89.77024 601.0820266666667 104.8128 583.1978666666666C120.94592 564.0149333333334 144.43264 554.6581333333334 170.65344 554.6581333333334L170.65344 170.6581333333334L85.3201066666667 170.6581333333334L85.3201066666667 85.3248000000001L938.6538666666665 85.3248000000001L938.6538666666665 170.6581333333334L853.3205333333333 170.6581333333334L853.3205333333333 554.6581333333334C879.5306666666667 554.6581333333334 903.0357333333332 564.0106666666667 919.1722666666666 583.2192C934.2208 601.1400533333333 938.6538666666665 622.6530133333333 938.6538666666665 639.9931733333334L938.6538666666665 682.65984L853.3205333333333 682.65984L853.3205333333333 640.1122133333333C852.0575999999999 640.4834133333334 846.7754666666666 642.0151466666667 836.5141333333332 648.3306666666667C824.3199999999999 655.8361600000001 809.4037333333333 667.3745066666668 792.3327999999999 682.5493333333334C758.3018666666667 712.7978666666667 719.6629333333333 753.91616 682.7648 796.0891733333333C646.0416 838.0565333333334 611.8442666666666 880.1425066666667 586.7733333333333 911.8097066666666C574.2549333333333 927.6219733333334 564.0533333333333 940.7872 556.9962666666667 949.9780266666666C553.4677333333333 954.5728 550.7285333333333 958.17088 548.8810666666666 960.6071466666668L546.7904 963.3685333333332L546.2741333333333 964.0554666666666L546.1205333333332 964.26112zM712.7082666666666 639.9931733333334L311.26656 639.9931733333334C342.5655466666666 670.0151466666667 375.1534933333333 705.2949333333333 405.4301866666666 739.8967466666667C443.3749333333334 783.26272 478.5109333333333 826.51008 504.1066666666666 858.84288C506.8416 862.30016 509.4741333333333 865.63456 511.9872 868.8337066666667C514.5002666666667 865.63456 517.1328 862.30016 519.8677333333333 858.84288C545.4634666666666 826.51008 580.5994666666666 783.26272 618.5429333333333 739.8967466666667C648.8191999999999 705.2949333333333 681.4079999999999 670.0155733333334 712.7082666666666 639.9931733333334zM255.9867733333334 554.6581333333334L767.9872 554.6581333333334L767.9872 170.6581333333334L639.9872 170.6581333333334L639.9872 298.6581333333334C639.9872 369.3525333333335 582.6773333333333 426.6581333333334 511.9872 426.6581333333334C441.2928 426.6581333333334 383.9867733333333 369.3525333333335 383.9867733333333 298.6581333333334L383.9867733333333 170.6581333333334L255.9867733333334 170.6581333333334L255.9867733333334 554.6581333333334zM554.6538666666667 170.6581333333334L469.3205333333333 170.6581333333334L469.3205333333333 298.6581333333334C469.3205333333333 322.2229333333334 488.4224 341.3248000000001 511.9872 341.3248000000001C535.5519999999999 341.3248000000001 554.6538666666667 322.2229333333334 554.6538666666667 298.6581333333334L554.6538666666667 170.6581333333334z" />
    <glyph glyph-name="archway-1"
      unicode="&#xE01A;"
      horiz-adv-x="1024" d="M85.3333333333333 938.6666666666666H938.6666666666666V725.3333333333334H814.3146666666667L830.7199999999999 597.3333333333334H938.6666666666666V512H841.6597333333334L901.0773333333332 48.4394666666667L816.4394666666667 37.5893333333333L755.6266666666667 512H266.9986133333333L207.7115733333333 37.7045333333334L123.03744 48.2901333333333L181.0013866666666 512H85.3333333333333V597.3333333333334H191.6680533333333L207.6680533333333 725.3333333333334H85.3333333333333V938.6666666666666zM293.66528 725.3333333333334L277.66528 597.3333333333334H469.3333333333333V725.3333333333334H293.66528zM554.6666666666666 725.3333333333334V597.3333333333334H744.6912L728.2815999999999 725.3333333333334H554.6666666666666zM170.6666666666667 853.3333333333334V810.6666666666667H853.3333333333333V853.3333333333334H170.6666666666667z" />
    <glyph glyph-name="archway"
      unicode="&#xE01B;"
      horiz-adv-x="1024" d="M256 938.6666666666666V896H768V938.6666666666666H853.3333333333333V896H896V810.6666666666667H862.7114666666666L888.3114666666667 682.6666666666667H938.6666666666666V597.3333333333334H896V170.6666666666668H938.6666666666666V85.3333333333334H85.3333333333333V170.6666666666668H128V597.3333333333334H85.3333333333333V682.6666666666667H135.6885333333334L161.2885333333333 810.6666666666667H128V896H170.6666666666667V938.6666666666666H256zM248.3114666666667 810.6666666666667L222.7114666666667 682.6666666666667H801.2885333333334L775.6885333333332 810.6666666666667H248.3114666666667zM810.6666666666666 597.3333333333334H682.6666666666666V170.6666666666668H810.6666666666666V597.3333333333334zM597.3333333333333 170.6666666666668V597.3333333333334H426.6666666666667V170.6666666666668H597.3333333333333zM341.3333333333333 170.6666666666668V597.3333333333334H213.3333333333333V170.6666666666668H341.3333333333333z" />
    <glyph glyph-name="arrow-down-circle"
      unicode="&#xE01C;"
      horiz-adv-x="1024" d="M512 896C299.9227733333334 896 128 724.0772266666667 128 512C128 299.9210666666667 299.9227733333334 128 512 128C724.0789333333333 128 896 299.9210666666667 896 512C896 724.0772266666667 724.0789333333333 896 512 896zM42.6666666666667 512C42.6666666666667 771.2055466666667 252.7944533333334 981.3333333333334 512 981.3333333333334C771.2042666666666 981.3333333333334 981.3333333333331 771.2055466666667 981.3333333333331 512C981.3333333333331 252.7957333333334 771.2042666666666 42.6666666666667 512 42.6666666666667C252.7944533333334 42.6666666666667 42.6666666666667 252.7957333333334 42.6666666666667 512zM554.6666666666666 746.6666666666667V423.0058666666667L682.6666666666666 551.0058666666666L743.0058666666666 490.6666666666667L512 259.6608L280.9937066666667 490.6666666666667L341.3333333333333 551.0058666666666L469.3333333333333 423.0058666666667V746.6666666666667H554.6666666666666z" />
    <glyph glyph-name="arrow-down-rectangle"
      unicode="&#xE01D;"
      horiz-adv-x="1024" d="M85.3333333333333 938.6666666666666H938.6666666666666V85.3333333333334H85.3333333333333V938.6666666666666zM170.6666666666667 853.3333333333334V170.6666666666668H853.3333333333333V853.3333333333334H170.6666666666667zM554.6666666666666 746.6666666666667V423.0058666666667L682.6666666666666 551.0058666666666L743.0058666666666 490.6666666666667L512 259.6608L280.9937066666667 490.6666666666667L341.3333333333333 551.0058666666666L469.3333333333333 423.0058666666667V746.6666666666667H554.6666666666666z" />
    <glyph glyph-name="arrow-down"
      unicode="&#xE01E;"
      horiz-adv-x="1024" d="M469.3418666666666 832L469.3418666666666 337.6725333333334L277.3397333333333 529.6725333333334L217.0001066666667 469.3333333333334L512.0085333333333 174.3274666666666L807.0144 469.3333333333334L746.6709333333333 529.6725333333334L554.6751999999999 337.6725333333334L554.6751999999999 832L469.3418666666666 832z" />
    <glyph glyph-name="arrow-left-circle"
      unicode="&#xE01F;"
      horiz-adv-x="1024" d="M896 512C896 724.0772266666667 724.0789333333333 896 512 896C299.9227733333334 896 128 724.0772266666667 128 512C128 299.9210666666667 299.9227733333334 128 512 128C724.0789333333333 128 896 299.9210666666667 896 512zM512 981.3333333333334C771.2042666666666 981.3333333333334 981.3333333333331 771.2055466666667 981.3333333333331 512C981.3333333333331 252.7957333333334 771.2042666666666 42.6666666666667 512 42.6666666666667C252.7944533333334 42.6666666666667 42.6666666666667 252.7957333333334 42.6666666666667 512C42.6666666666667 771.2055466666667 252.7944533333334 981.3333333333334 512 981.3333333333334zM746.6666666666666 469.3333333333334L423.0062933333334 469.3333333333334L551.0058666666666 341.3333333333334L490.6666666666666 280.9941333333334L259.6603733333334 512L490.6666666666666 743.0062933333334L551.0058666666666 682.6666666666667L423.0062933333334 554.6666666666667L746.6666666666666 554.6666666666667V469.3333333333334z" />
    <glyph glyph-name="arrow-left-down-circle"
      unicode="&#xE020;"
      horiz-adv-x="1024" d="M128 512C128 299.9210666666667 299.9227733333334 128 512 128C724.0789333333333 128 896 299.9210666666667 896 512C896 724.0772266666667 724.0789333333333 896 512 896C299.9227733333334 896 128 724.0772266666667 128 512zM512 42.6666666666667C252.7944533333334 42.6666666666667 42.6666666666667 252.7957333333334 42.6666666666667 512C42.6666666666667 771.2055466666667 252.7944533333334 981.3333333333334 512 981.3333333333334C771.2042666666666 981.3333333333334 981.3333333333331 771.2055466666667 981.3333333333331 512C981.3333333333331 252.7957333333334 771.2042666666666 42.6666666666667 512 42.6666666666667zM333.57056 333.5978666666668L333.57056 660.2888533333333H418.9038933333333V479.2704000000001L647.7653333333333 708.13184L708.1045333333333 647.7917866666667L479.2448 418.9312H660.2624V333.5978666666668H333.57056z" />
    <glyph glyph-name="arrow-left-down"
      unicode="&#xE021;"
      horiz-adv-x="1024" d="M768.4650666666666 708.1028266666667L418.9230933333334 358.5621333333334H690.4533333333334V273.2288000000001L273.2501333333334 273.2288000000001L273.2501333333334 690.4298666666666L358.5834666666666 690.4298666666666L358.5834666666666 418.9013333333334L708.1258666666665 768.4428800000001L768.4650666666666 708.1028266666667z" />
    <glyph glyph-name="arrow-left-right-1"
      unicode="&#xE022;"
      horiz-adv-x="1024" d="M153.0001066666667 320.0042666666667L362.6730666666666 529.6768000000001L423.0126933333334 469.3376000000001L316.3460266666667 362.6709333333333L832.0085333333333 362.6709333333333V277.3376000000001L316.3460266666667 277.3376000000001L423.0126933333334 170.6709333333333L362.6730666666666 110.3317333333333L153.0001066666667 320.0042666666667zM192.0064 746.6705066666667L707.6650666666666 746.6705066666667L600.9984 853.3371733333333L661.3418666666666 913.6772266666666L871.0144 704.0038400000001L661.3418666666666 494.3317333333334L600.9984 554.6709333333333L707.6650666666666 661.3371733333333L192.0064 661.3371733333333L192.0064 746.6705066666667z" />
    <glyph glyph-name="arrow-left-right-2"
      unicode="&#xE023;"
      horiz-adv-x="1024" d="M917.3333333333331 277.3290666666667L551.0058666666666 277.3290666666667L679.0058666666666 149.3248000000001L618.6666666666666 88.9856L387.6599466666667 319.9957333333334L618.6666666666666 551.0016L679.0058666666666 490.6624L551.0058666666666 362.6624000000001L917.3333333333331 362.6624000000001L917.3333333333331 277.3290666666667zM636.3391999999999 703.9940266666667L405.3333333333333 472.9856L344.9937066666667 533.3248000000001L472.9941333333334 661.32736L106.6666666666667 661.32736L106.6666666666667 746.6606933333334L472.9941333333334 746.6606933333334L344.9937066666667 874.6602666666666L405.3333333333333 934.9998933333334L636.3391999999999 703.9940266666667z" />
    <glyph glyph-name="arrow-left-right-3"
      unicode="&#xE024;"
      horiz-adv-x="1024" d="M892.3477333333333 703.9940266666667L661.3418666666666 472.9856L600.9984 533.3248000000001L728.9984 661.3269333333334L362.6730666666666 661.32736L362.6730666666666 746.6606933333334L728.9984 746.6606933333334L600.9984 874.6602666666666L661.3418666666666 934.9998933333334L892.3477333333333 703.9940266666667zM661.3418666666666 277.3290666666667L295.0126933333334 277.3290666666667L423.01312 149.3248000000001L362.6730666666666 88.9856L131.6667733333333 319.9957333333334L362.6730666666666 551.0016L423.01312 490.6581333333334L295.01312 362.6624000000001L661.3418666666666 362.6624000000001L661.3418666666666 277.3290666666667z" />
    <glyph glyph-name="arrow-left-right-circle"
      unicode="&#xE025;"
      horiz-adv-x="1024" d="M128 512C128 299.9210666666667 299.9227733333334 128 512 128C724.0789333333333 128 896 299.9210666666667 896 512C896 724.0772266666667 724.0789333333333 896 512 896C299.9227733333334 896 128 724.0772266666667 128 512zM512 42.6666666666667C252.7944533333334 42.6666666666667 42.666624 252.7957333333334 42.6666666666667 512C42.6666666666667 771.2055466666667 252.7944533333334 981.333376 512 981.3333333333334C771.2042666666666 981.3333333333334 981.3333333333331 771.2055466666667 981.3333333333331 512C981.3333333333331 252.7957333333334 771.2042666666666 42.6666666666667 512 42.6666666666667zM216.9937066666667 384L384 551.0058666666666L444.3392 490.6666666666667L380.3396266666667 426.6666666666668L597.3333333333333 426.6666666666668L597.3333333333333 341.3333333333334L380.3396266666667 341.3333333333334L444.3392 277.3333333333334L384 216.9941333333334L216.9937066666667 384zM426.6666666666667 682.6666666666667L643.6608 682.6666666666667L579.6608 746.6666666666667L640 807.0062933333334L807.0058666666666 640L640 472.9941333333334L579.6608 533.3333333333334L643.6608 597.3333333333334H426.6666666666667L426.6666666666667 682.6666666666667z" />
    <glyph glyph-name="arrow-left-up-circle"
      unicode="&#xE026;"
      horiz-adv-x="1024" d="M512 896C299.9227733333334 896 128 724.0772266666667 128 512C128 299.9210666666667 299.9227733333334 128 512 128C724.0789333333333 128 896 299.9210666666667 896 512C896 724.0772266666667 724.0789333333333 896 512 896zM42.6666666666667 512C42.6666666666667 771.2055466666667 252.7944533333334 981.3333333333334 512 981.3333333333334C771.2042666666666 981.3333333333334 981.3333333333331 771.2055466666667 981.3333333333331 512C981.3333333333331 252.7957333333334 771.2042666666666 42.6666666666667 512 42.6666666666667C252.7944533333334 42.6666666666667 42.6666666666667 252.7957333333334 42.6666666666667 512zM333.5547733333333 690.42944H660.2453333333333V605.0961066666667H479.2277333333333L708.0917333333333 376.2346666666668L647.7482666666666 315.8954666666667L418.8881066666667 544.7552000000001V363.7376000000001H333.5547733333333V690.42944z" />
    <glyph glyph-name="arrow-left-up"
      unicode="&#xE027;"
      horiz-adv-x="1024" d="M708.0832 255.5562666666667L358.5416533333334 605.0978133333333L358.5416533333334 333.5680000000001H273.20832L273.20832 750.7707733333334L690.4106666666667 750.7707733333334L690.4106666666667 665.43744L418.88128 665.43744L768.4223999999999 315.8954666666667L708.0832 255.5562666666667z" />
    <glyph glyph-name="arrow-left"
      unicode="&#xE028;"
      horiz-adv-x="1024" d="M832.0085333333333 469.3333333333334L337.67936 469.3333333333334L529.6810666666667 277.3333333333334L469.3376 216.9941333333334L174.33344 512L469.3376 807.0050133333334L529.6810666666667 746.6653866666667L337.67936 554.6666666666667L832.0085333333333 554.6666666666667V469.3333333333334z" />
    <glyph glyph-name="arrow-right-circle"
      unicode="&#xE029;"
      horiz-adv-x="1024" d="M128 512C128 724.0772266666667 299.9227733333334 896 512 896C724.0789333333333 896 896 724.0772266666667 896 512C896 299.9210666666667 724.0789333333333 128 512 128C299.9227733333334 128 128 299.9210666666667 128 512zM512 981.3333333333334C252.7944533333334 981.3333333333334 42.6666666666667 771.2055466666667 42.6666666666667 512C42.6666666666667 252.7957333333334 252.7944533333334 42.6666666666667 512 42.6666666666667C771.2042666666666 42.6666666666667 981.3333333333331 252.7957333333334 981.3333333333331 512C981.3333333333331 771.2055466666667 771.2042666666666 981.3333333333334 512 981.3333333333334zM277.3333333333333 469.3333333333334L600.9941333333334 469.3333333333334L472.9941333333334 341.3333333333334L533.3333333333333 280.9941333333334L764.3392 512L533.3333333333333 743.0062933333334L472.9941333333334 682.6666666666667L600.9941333333334 554.6666666666667L277.3333333333333 554.6666666666667V469.3333333333334z" />
    <glyph glyph-name="arrow-right-down-circle"
      unicode="&#xE02A;"
      horiz-adv-x="1024" d="M512 128C724.0789333333333 128 896 299.9210666666667 896 512C896 724.0772266666667 724.0789333333333 896 512 896C299.9227733333334 896 128 724.0772266666667 128 512C128 299.9210666666667 299.9227733333334 128 512 128zM981.3333333333331 512C981.3333333333331 252.7957333333334 771.2042666666666 42.6666666666667 512 42.6666666666667C252.7944533333334 42.6666666666667 42.666624 252.7957333333334 42.6666666666667 512C42.6666666666667 771.2055466666667 252.7944533333334 981.333376 512 981.3333333333334C771.2042666666666 981.3333333333334 981.3333333333331 771.2055466666667 981.3333333333331 512zM605.1114666666666 479.2448000000001V660.2628266666667L690.4448 660.2628266666667V333.5722666666668H363.7529600000001L363.7529600000001 418.9056000000001H544.7722666666666L315.9099733333333 647.7661866666667L376.2496 708.1058133333333L605.1114666666666 479.2448000000001z" />
    <glyph glyph-name="arrow-right-down"
      unicode="&#xE02B;"
      horiz-adv-x="1024" d="M315.8813866666667 768.4428800000001L665.4250666666667 418.9013333333334V690.4298666666666L750.7583999999999 690.4298666666666L750.7583999999999 273.2288000000001H333.5547733333333L333.5547733333333 358.5621333333334H605.0816L255.54176 708.1028266666667L315.8813866666667 768.4428800000001z" />
    <glyph glyph-name="arrow-right-up-circle"
      unicode="&#xE02C;"
      horiz-adv-x="1024" d="M896 512C896 724.0772266666667 724.0789333333333 896 512 896C299.9227733333334 896 128 724.0772266666667 128 512C128 299.9210666666667 299.9227733333334 128 512 128C724.0789333333333 128 896 299.9210666666667 896 512zM512 981.3333333333334C771.2042666666666 981.3333333333334 981.3333333333331 771.2055466666667 981.3333333333331 512C981.3333333333331 252.7957333333334 771.2042666666666 42.6666666666667 512 42.6666666666667C252.7944533333334 42.6666666666667 42.6666666666667 252.7957333333334 42.6666666666667 512C42.6666666666667 771.2055466666667 252.7944533333334 981.3333333333334 512 981.3333333333334zM544.7552 605.0705066666667L363.7371733333333 605.0705066666667V690.40384L690.4277333333332 690.40384V363.712H605.0944L605.0944 544.7296L376.2338133333334 315.8698666666667L315.8941866666667 376.2090666666667L544.7552 605.0705066666667z" />
    <glyph glyph-name="arrow-right-up"
      unicode="&#xE02D;"
      horiz-adv-x="1024" d="M255.54176 315.8954666666667L605.0816 665.43744L333.5547733333333 665.43744L333.5547733333333 750.7707733333334L750.7583999999999 750.7707733333334V333.5680000000001L665.4250666666667 333.5680000000001V605.0978133333333L315.8813866666667 255.5562666666667L255.54176 315.8954666666667z" />
    <glyph glyph-name="arrow-right"
      unicode="&#xE02E;"
      horiz-adv-x="1024" d="M192 554.6666666666667L686.3274666666666 554.6666666666667L494.3274666666667 746.6653866666667L554.6666666666666 807.0050133333334L849.6725333333334 512L554.6666666666666 216.9941333333334L494.3274666666667 277.3333333333334L686.3274666666666 469.3333333333334L192 469.3333333333334L192 554.6666666666667z" />
    <glyph glyph-name="arrow-triangle-down-filled"
      unicode="&#xE02F;"
      horiz-adv-x="1024" d="M640 512H832L512 85.3333333333334L192 512H384V938.6666666666666H640V512z" />
    <glyph glyph-name="arrow-triangle-down"
      unicode="&#xE030;"
      horiz-adv-x="1024" d="M384 512V938.6666666666666H640V512H832L512 85.3333333333334L192 512H384zM362.6666666666667 426.6666666666668L512 227.5541333333335L661.3333333333333 426.6666666666668H554.6666666666666V853.3333333333334H469.3333333333333V426.6666666666668H362.6666666666667z" />
    <glyph glyph-name="arrow-triangle-up-filled"
      unicode="&#xE031;"
      horiz-adv-x="1024" d="M640 512H832L512 938.6666666666666L192 512H384V85.3333333333334H640V512z" />
    <glyph glyph-name="arrow-triangle-up"
      unicode="&#xE032;"
      horiz-adv-x="1024" d="M384 512V85.3333333333334H640V512H832L512 938.6666666666666L192 512H384zM362.6666666666667 597.3333333333334L512 796.4445866666667L661.3333333333333 597.3333333333334H554.6666666666666V170.6666666666668H469.3333333333333V597.3333333333334H362.6666666666667z" />
    <glyph glyph-name="arrow-up-circle"
      unicode="&#xE033;"
      horiz-adv-x="1024" d="M512 896C299.9227733333334 896 128 724.0772266666667 128 512C128 299.9210666666667 299.9227733333334 128 512 128C724.0789333333333 128 896 299.9210666666667 896 512C896 724.0772266666667 724.0789333333333 896 512 896zM42.6666666666667 512C42.6666666666667 771.2055466666667 252.7944533333334 981.3333333333334 512 981.3333333333334C771.2042666666666 981.3333333333334 981.3333333333331 771.2055466666667 981.3333333333331 512C981.3333333333331 252.7957333333334 771.2042666666666 42.6666666666667 512 42.6666666666667C252.7944533333334 42.6666666666667 42.6666666666667 252.7957333333334 42.6666666666667 512zM512 764.3396266666666L743.0058666666666 533.3333333333334L682.6666666666666 472.9941333333334L554.6666666666666 600.9937066666666V277.3333333333334H469.3333333333333V600.9937066666666L341.3333333333333 472.9941333333334L280.9937066666667 533.3333333333334L512 764.3396266666666z" />
    <glyph glyph-name="arrow-up-down-1"
      unicode="&#xE034;"
      horiz-adv-x="1024" d="M704.0085333333333 152.9984L494.3317333333333 362.6709333333333L554.6709333333333 423.0101333333335L661.3418666666666 316.3434666666667V832.0038400000001L746.6751999999999 832.0038400000001L746.6751999999999 316.3434666666667L853.3418666666666 423.0101333333335L913.6810666666667 362.6709333333333L704.0085333333333 152.9984zM277.3397333333333 192.0042666666667V707.6642133333334L170.6730666666667 600.9975466666667L110.33344 661.3371733333333L320.0064 871.0105599999999L529.6810666666667 661.3371733333333L469.3418666666666 600.9975466666667L362.6730666666666 707.6642133333334V192.0042666666667H277.3397333333333z" />
    <glyph glyph-name="arrow-up-down-2"
      unicode="&#xE035;"
      horiz-adv-x="1024" d="M746.6709333333333 917.3435733333334L746.6709333333333 551.0186666666667L874.6751999999999 679.01696L935.0144 618.6769066666667L704.0042666666666 387.6693333333334L472.9984 618.6773333333333L533.3418666666666 679.01696L661.3376 551.0186666666667L661.3376 917.3435733333334L746.6709333333333 917.3435733333334zM320.0059733333333 636.3502933333334L551.0144 405.3418666666667L490.6752 345.0026666666668L362.6730666666666 473.0026666666668L362.67264 106.6752H277.3393066666667L277.3397333333333 473.0026666666668L149.3397333333333 345.0026666666668L89.0001066666667 405.3418666666667L320.0059733333333 636.3502933333334z" />
    <glyph glyph-name="arrow-up-down-3"
      unicode="&#xE036;"
      horiz-adv-x="1024" d="M320.0059733333333 892.3438933333333L551.0144 661.3371733333333L490.6752 600.9975466666667L362.6730666666666 728.9975466666667L362.67264 362.6709333333333L277.3393066666667 362.6709333333333L277.3397333333333 728.9975466666667L149.3397333333333 600.9975466666667L89.0001066666667 661.3371733333333L320.0059733333333 892.3438933333333zM746.6709333333333 661.3371733333333L746.6709333333333 295.0101333333335L874.6709333333333 423.0101333333335L935.0144 362.6709333333333L704.0042666666666 131.6650666666667L472.9984 362.6709333333333L533.3418666666666 423.0101333333335L661.3376 295.0101333333335L661.3376 661.3371733333333L746.6709333333333 661.3371733333333z" />
    <glyph glyph-name="arrow-up-down-circle"
      unicode="&#xE037;"
      horiz-adv-x="1024" d="M512 128C724.0789333333333 128 896 299.9210666666667 896 512C896 724.0772266666667 724.0789333333333 896 512 896C299.9227733333334 896 128 724.0772266666667 128 512C128 299.9210666666667 299.9227733333334 128 512 128zM981.3333333333331 512C981.3333333333331 252.7957333333334 771.2042666666666 42.6666666666667 512 42.6666666666667C252.7944533333334 42.6666666666667 42.666624 252.7957333333334 42.6666666666667 512C42.6666666666667 771.2055466666667 252.7944533333334 981.333376 512 981.3333333333334C771.2042666666666 981.3333333333334 981.3333333333331 771.2055466666667 981.3333333333331 512zM640 216.9941333333334L472.9941333333334 384L533.3333333333333 444.3392L597.3333333333333 380.3392L597.3333333333333 597.3333333333334H682.6666666666666L682.6666666666666 380.3392L746.6666666666666 444.3392L807.0058666666666 384L640 216.9941333333334zM341.3333333333333 426.6666666666668L341.3333333333333 643.6603733333334L277.3333333333333 579.6608000000001L216.9937066666667 640L384 807.0062933333334L551.0058666666666 640L490.6666666666666 579.6608000000001L426.6666666666667 643.6603733333334L426.6666666666667 426.6666666666668H341.3333333333333z" />
    <glyph glyph-name="arrow-up"
      unicode="&#xE038;"
      horiz-adv-x="1024" d="M469.3418666666666 192L469.3418666666666 686.32576L277.3397333333333 494.3274666666667L217.0001066666667 554.6666666666667L512.0085333333333 849.67168L807.0144 554.6666666666667L746.6709333333333 494.3274666666667L554.6751999999999 686.32576L554.6751999999999 192H469.3418666666666z" />
    <glyph glyph-name="artboard"
      unicode="&#xE039;"
      horiz-adv-x="1024" d="M341.3333333333333 938.6666666666666V768L682.6666666666666 768V938.6666666666666L768 938.6666666666666V768L938.6666666666666 768V682.6666666666667L768 682.6666666666667L768 341.3333333333334L938.6666666666666 341.3333333333334V256L768 256V85.3333333333334H682.6666666666666L682.6666666666666 256L341.3333333333333 256V85.3333333333334H256L256 256H85.3333333333333L85.3333333333333 341.3333333333334H256L256 682.6666666666667L85.3333333333333 682.6666666666667L85.3333333333333 768L256 768L256 938.6666666666666L341.3333333333333 938.6666666666666zM341.3333333333333 682.6666666666667L341.3333333333333 341.3333333333334L682.6666666666666 341.3333333333334V682.6666666666667L341.3333333333333 682.6666666666667z" />
    <glyph glyph-name="article"
      unicode="&#xE03A;"
      horiz-adv-x="1024" d="M106.6666666666667 938.6666666666666L917.3333333333331 938.6666666666666L917.3333333333331 85.3333333333334L106.6666666666667 85.3333333333334L106.6666666666667 938.6666666666666zM192 853.3333333333334L192 170.6666666666668L832 170.6666666666668L832 853.3333333333334L192 853.3333333333334zM298.6666666666667 725.3333333333334L725.3333333333333 725.3333333333334V640L298.6666666666667 640V725.3333333333334zM298.6666666666667 554.6666666666667L725.3333333333333 554.6666666666667V469.3333333333334L298.6666666666667 469.3333333333334V554.6666666666667zM298.6666666666667 384L597.3333333333333 384V298.6666666666668H298.6666666666667L298.6666666666667 384z" />
    <glyph glyph-name="assignment-checked"
      unicode="&#xE03B;"
      horiz-adv-x="1024" d="M512 917.3333333333334C485.824 917.3333333333334 463.2234666666666 901.61024 453.3077333333333 878.9175466666667L442.1290666666667 853.3333333333334H192V170.6666666666668H832V853.3333333333334H581.8709333333334L570.6922666666667 878.9175466666667C560.7765333333333 901.61024 538.1759999999999 917.3333333333334 512 917.3333333333334zM389.44384 938.6666666666666C416.39936 977.3111466666666 461.2053333333333 1002.6666666666666 512 1002.6666666666666C562.7946666666667 1002.6666666666666 607.5989333333333 977.3111466666666 634.5557333333334 938.6666666666666H917.3333333333331V85.3333333333334H106.6666666666667V938.6666666666666H389.44384zM753.3781333333333 615.0050133333334L451.6778666666667 313.3056000000001L270.6602666666667 494.3274666666667L330.9998933333333 554.6666666666667L451.6778666666667 433.9840000000001L693.0389333333333 675.3450666666668L753.3781333333333 615.0050133333334z" />
    <glyph glyph-name="assignment-code"
      unicode="&#xE03C;"
      horiz-adv-x="1024" d="M106.6666666666667 938.6666666666666L389.44384 938.6666666666666C416.3989333333333 977.3111466666666 461.2053333333333 1002.6666666666666 512 1002.6666666666666C562.7946666666667 1002.6666666666666 607.5989333333333 977.3111466666666 634.5557333333334 938.6666666666666L917.3333333333331 938.6666666666666V85.3333333333334H106.6666666666667L106.6666666666667 938.6666666666666zM192 170.6666666666668H832V853.3333333333334L581.8709333333334 853.3333333333334L570.6922666666667 878.9175466666667C560.7765333333333 901.61024 538.1759999999999 917.3333333333334 512 917.3333333333334C485.824 917.3333333333334 463.2234666666666 901.61024 453.3077333333333 878.9175466666667L442.1290666666667 853.3333333333334L192 853.3333333333334V170.6666666666668zM238.32704 512L405.3333333333333 679.0062933333334L465.6725333333333 618.6666666666667L359.00672 512L465.6725333333333 405.3333333333334L405.3333333333333 344.9941333333334L238.32704 512zM618.6666666666666 679.0062933333334L785.6725333333334 512L618.6666666666666 344.9941333333334L558.3274666666666 405.3333333333334L664.9941333333334 512L558.3274666666666 618.6666666666667L618.6666666666666 679.0062933333334z" />
    <glyph glyph-name="assignment-error"
      unicode="&#xE03D;"
      horiz-adv-x="1024" d="M512 917.3333333333334C485.824 917.3333333333334 463.2234666666666 901.61024 453.3077333333333 878.9175466666667L442.1290666666667 853.3333333333334H192V170.6666666666668H832V853.3333333333334H581.8709333333334L570.6922666666667 878.9175466666667C560.7765333333333 901.61024 538.1759999999999 917.3333333333334 512 917.3333333333334zM389.44384 938.6666666666666C416.39936 977.3111466666666 461.2053333333333 1002.6666666666666 512 1002.6666666666666C562.7946666666667 1002.6666666666666 607.5989333333333 977.3111466666666 634.5557333333334 938.6666666666666H917.3333333333331V85.3333333333334H106.6666666666667V938.6666666666666H389.44384zM554.6666666666666 704V448H469.3333333333333V704H554.6666666666666zM469.3333333333333 384.1664000000001H554.8330666666666V298.6666666666668H469.3333333333333V384.1664000000001z" />
    <glyph glyph-name="assignment-user"
      unicode="&#xE03E;"
      horiz-adv-x="1024" d="M512 917.3333333333334C485.824 917.3333333333334 463.2234666666666 901.61024 453.3077333333333 878.9175466666667L442.1290666666667 853.3333333333334H192V170.6666666666668H832V853.3333333333334H581.8709333333334L570.6922666666667 878.9175466666667C560.7765333333333 901.61024 538.1759999999999 917.3333333333334 512 917.3333333333334zM389.44384 938.6666666666666C416.39936 977.3111466666666 461.2053333333333 1002.6666666666666 512 1002.6666666666666C562.7946666666667 1002.6666666666666 607.5989333333333 977.3111466666666 634.5557333333334 938.6666666666666H917.3333333333331V85.3333333333334H106.6666666666667V938.6666666666666H389.44384zM512 682.6666666666667C476.6549333333333 682.6666666666667 448 654.0130133333334 448 618.6666666666667C448 583.3216 476.6549333333333 554.6666666666667 512 554.6666666666667C547.3450666666666 554.6666666666667 576 583.3216 576 618.6666666666667C576 654.0130133333334 547.3450666666666 682.6666666666667 512 682.6666666666667zM362.6666666666667 618.6666666666667C362.6666666666667 701.1413333333334 429.5253333333333 768 512 768C594.4746666666666 768 661.3333333333333 701.1413333333334 661.3333333333333 618.6666666666667C661.3333333333333 536.192 594.4746666666666 469.3333333333334 512 469.3333333333334C429.5253333333333 469.3333333333334 362.6666666666667 536.192 362.6666666666667 618.6666666666667zM256 256C256 350.2549333333334 332.4100266666667 426.6666666666668 426.6666666666667 426.6666666666668H597.3333333333333C691.5882666666666 426.6666666666668 768 350.2549333333334 768 256V213.3333333333334H682.6666666666666V256C682.6666666666666 303.1296000000001 644.4629333333332 341.3333333333334 597.3333333333333 341.3333333333334H426.6666666666667C379.5383466666666 341.3333333333334 341.3333333333333 303.1296000000001 341.3333333333333 256V213.3333333333334H256V256z" />
    <glyph glyph-name="assignment"
      unicode="&#xE03F;"
      horiz-adv-x="1024" d="M512 917.3333333333334C485.824 917.3333333333334 463.2234666666666 901.61024 453.3077333333333 878.9175466666667L442.1290666666667 853.3333333333334H192V170.6666666666668H832V853.3333333333334H581.8709333333334L570.6922666666667 878.9175466666667C560.7765333333333 901.61024 538.1759999999999 917.3333333333334 512 917.3333333333334zM389.44384 938.6666666666666C416.39936 977.3111466666666 461.2053333333333 1002.6666666666666 512 1002.6666666666666C562.7946666666667 1002.6666666666666 607.5989333333333 977.3111466666666 634.5557333333334 938.6666666666666H917.3333333333331V85.3333333333334H106.6666666666667V938.6666666666666H389.44384zM298.6666666666667 725.3333333333334H725.3333333333333V640H298.6666666666667V725.3333333333334zM298.6666666666667 554.6666666666667H725.3333333333333V469.3333333333334H298.6666666666667V554.6666666666667zM298.6666666666667 384H597.3333333333333V298.6666666666668H298.6666666666667V384z" />
    <glyph glyph-name="attach"
      unicode="&#xE040;"
      horiz-adv-x="1024" d="M482.7221333333333 890.8288C566.0330666666666 974.1405866666666 701.1072 974.1405866666666 784.4181333333332 890.8288C867.7333333333332 807.5165866666666 867.7333333333332 672.4416000000001 784.4181333333332 589.1285333333334L452.5525333333333 257.2629333333333C402.5642666666667 207.2746666666667 321.51936 207.2746666666667 271.5319466666666 257.2629333333333C221.54496 307.2469333333334 221.54496 388.2922666666667 271.5319466666666 438.2805333333333L603.4005333333333 770.14912L663.7397333333333 709.8090666666667L331.872 377.9413333333335C315.2093866666667 361.28 315.2093866666667 334.2634666666667 331.872 317.6021333333333C348.5341866666667 300.9365333333334 375.54944 300.9365333333334 392.2116266666667 317.6021333333333L724.0789333333333 649.4694400000001C774.0672 699.4564266666666 774.0672 780.50176 724.0789333333333 830.4887466666667C674.0949333333333 880.4757333333333 593.0495999999999 880.4761599999999 543.0613333333333 830.4887466666667L211.19232 498.6197333333334C127.8805333333333 415.3088 127.8805333333333 280.2346666666668 211.19232 196.9194666666667C294.5041066666667 113.6085333333334 429.5808 113.6085333333334 512.8917333333333 196.9194666666667L874.9312 558.9589333333333L935.2704 498.6197333333334L573.2309333333333 136.5802666666667C456.5930666666666 19.9466666666667 267.4888533333333 19.9466666666667 150.8522666666667 136.5802666666667C34.2158506666667 253.2181333333333 34.2158506666667 442.3253333333335 150.8522666666667 558.9589333333333L482.7221333333333 890.8288z" />
    <glyph glyph-name="attic-1"
      unicode="&#xE041;"
      horiz-adv-x="1024" d="M476.5312 962.4072533333334L511.9914666666667 1015.4166613333334L547.4431999999999 962.40256L547.6693333333333 962.0663466666666L548.5525333333333 960.768C549.3589333333333 959.5882666666666 550.6005333333333 957.7911466666666 552.2474666666667 955.4436266666665C555.5455999999999 950.74688 560.4693333333332 943.8557866666666 566.8266666666666 935.29856C579.5626666666667 918.1610666666666 597.9648 894.4631466666667 620.5141333333333 868.3886933333333C666.2101333333333 815.5421866666667 726.4725333333333 755.8190933333333 789.2223999999999 719.6565333333333C809.1050666666666 708.1966933333333 830.0117333333333 704.0034133333334 853.248 704.0034133333334H895.9146666666667V618.6700800000001H853.248C839.3471999999999 618.6700800000001 825.0581333333332 619.7201066666667 810.5856 622.3577600000001L810.5813333333333 298.6709333333333H895.9146666666667V213.3376000000001H853.248V85.3376000000001H767.9146666666667L767.9189333333334 213.3376000000001H554.5813333333333L554.5813333333333 85.3376000000001H469.2479999999999L469.2479999999999 213.3376000000001H255.9168L255.9168 85.3376000000001H170.5834666666667L170.5834666666667 213.3376000000001L127.9168 213.3376000000001L127.9168 298.6709333333333L213.34016 298.6709333333333L213.2642133333333 622.3569066666666C198.7822933333334 619.71968 184.4893866666667 618.6700800000001 170.5834666666667 618.6700800000001H127.9168L127.9168 704.0034133333334H170.5834666666667C193.8299733333333 704.0034133333334 214.7383466666667 708.1924266666667 234.6244266666667 719.64416C297.40416 755.79776 357.6994133333334 815.52512 403.41888 868.3780266666666C425.9771733333334 894.4558933333333 444.3904 918.15808 457.1349333333333 935.29856C463.4965333333333 943.8574933333334 468.4245333333333 950.7502933333332 471.7226666666666 955.4478933333334C473.3696 957.79584 474.6111999999999 959.5933866666666 475.4176 960.7735466666666L476.3050666666666 962.0718933333334L476.4970666666666 962.35776L476.5312 962.4072533333334zM298.59328 640.00512L298.6734933333334 298.6709333333333H383.9837866666667V392.5376000000001C383.9837866666667 463.2277333333334 441.2928 520.5376000000001 511.9829333333333 520.5376000000001C582.6773333333333 520.5376000000001 639.9829333333332 463.2277333333334 639.9829333333332 392.5376000000001V298.6709333333333H725.2522666666666V640.0213333333334L298.59328 640.00512zM640.2730666666666 725.3512533333334C608.2858666666666 754.5339733333333 579.6736 785.1524266666667 555.9637333333333 812.5742933333333C538.8928 832.31488 524.0533333333333 850.7669333333333 511.9786666666666 866.3982933333334C499.8954666666667 850.7609600000001 485.0389333333333 832.3008 467.9552 812.5512533333333C444.2368 785.1323733333334 415.6219733333333 754.51904 383.6270933333334 725.3418666666666L640.2730666666666 725.3512533333334zM554.6496 298.6709333333333V392.5376000000001C554.6496 416.1024 535.5477333333333 435.2042666666668 511.9829333333333 435.2042666666668C488.4181333333333 435.2042666666668 469.3162666666666 416.1024 469.3162666666666 392.5376000000001V298.6709333333333H554.6496z" />
    <glyph glyph-name="attic"
      unicode="&#xE042;"
      horiz-adv-x="1024" d="M546.5727999999999 963.6706133333334L512 1011.479168L477.4272 963.6706133333334L477.3333333333333 963.54176L476.9877333333333 963.0664533333334L475.5583999999999 961.1054933333334C474.2784 959.3621333333334 472.3669333333333 956.7650133333334 469.8752 953.41824C464.896 946.72256 457.6085333333333 937.0359466666666 448.4778666666667 925.1895466666668C430.1952 901.4702933333334 404.61568 869.2266666666667 375.4018133333333 835.06304C346.12736 800.8285866666668 313.5650133333333 765.0939733333333 281.3013333333334 734.20416C248.5666133333333 702.8633600000001 218.1422933333333 678.46784 193.1293866666667 665.0205866666668C176.7261866666667 656.2018133333333 162.2638933333333 649.6704 150.3586133333333 645.4395733333333C137.8372266666667 640.9894400000001 130.6628266666667 639.99872 128 639.99872L85.3333333333333 639.99872L85.3333333333333 554.6666666666667L128 554.6666666666667C141.97376 554.6666666666667 156.64896 557.8197333333334 170.6666666666667 562.2528L170.6666666666667 170.6666666666668L85.3333333333333 170.6666666666668L85.3333333333333 85.3333333333334L938.6666666666666 85.3333333333334L938.6666666666666 170.6666666666668L853.3333333333333 170.6666666666668L853.3333333333333 562.2528C867.3493333333332 557.8197333333334 882.0266666666666 554.6666666666667 896 554.6666666666667L938.6666666666666 554.6666666666667L938.6666666666666 639.99872L896 639.99872C893.3376 639.99872 886.1610666666667 640.9894400000001 873.6426666666666 645.4395733333333C861.7343999999999 649.6704 847.2746666666667 656.2018133333333 830.8693333333333 665.0205866666668C805.8581333333333 678.4682666666668 775.4325333333333 702.8633600000001 742.6986666666667 734.20416C710.4341333333333 765.0939733333333 677.8709333333334 800.8285866666668 648.5973333333333 835.06304C619.3834666666667 869.2266666666667 593.8047999999999 901.4702933333334 575.5221333333333 925.1895466666668C566.3914666666667 937.0359466666666 559.1082666666666 946.72256 554.1247999999999 953.41824C551.6330666666667 956.7650133333334 549.7216 959.3621333333334 548.4416 961.1054933333334L547.0122666666666 963.0664533333334L546.6666666666666 963.54176L546.5727999999999 963.6706133333334zM719.6415999999999 639.99872L304.35968 639.99872C316.51712 650.3317333333334 328.55808 661.3107200000001 340.3144533333333 672.5661866666667C375.3412266666667 706.1013333333333 409.9182933333333 744.1258666666668 440.256 779.60448C468.5354666666666 812.6754133333334 493.4485333333333 843.9057066666667 512 867.83872C530.5514666666666 843.9057066666667 555.4645333333333 812.6754133333334 583.7439999999999 779.60448C614.0799999999999 744.1262933333334 648.6570666666667 706.1013333333333 683.6864 672.5661866666667C695.4410666666665 661.3107200000001 707.4816000000001 650.3317333333334 719.6415999999999 639.99872zM256 554.6666666666667L768 554.6666666666667L768 170.6666666666668L640 170.6666666666668L640 298.6666666666668C640 369.3568 582.6944 426.6666666666668 512 426.6666666666668C441.3056 426.6666666666668 384 369.3568 384 298.6666666666668L384 170.6666666666668L256 170.6666666666668L256 554.6666666666667zM469.3333333333333 170.6666666666668L469.3333333333333 298.6666666666668C469.3333333333333 322.2314666666666 488.4352 341.3333333333334 512 341.3333333333334C535.5648 341.3333333333334 554.6666666666666 322.2314666666666 554.6666666666666 298.6666666666668L554.6666666666666 170.6666666666668L469.3333333333333 170.6666666666668z" />
    <glyph glyph-name="audio"
      unicode="&#xE043;"
      horiz-adv-x="1024" d="M128 981.3333333333334L896 981.3333333333334L896 42.6666666666667L128 42.6666666666667L128 981.3333333333334zM213.3333333333333 896L213.3333333333333 128L810.6666666666666 128L810.6666666666666 896L213.3333333333333 896zM469.1669333333333 810.8334933333333H554.6666666666666V725.3333333333334H469.1669333333333V810.8334933333333zM512 554.6666666666667C441.3056 554.6666666666667 384 497.3610666666667 384 426.6666666666668C384 355.9722666666667 441.3056 298.6666666666668 512 298.6666666666668C582.6944 298.6666666666668 640 355.9722666666667 640 426.6666666666668C640 497.3610666666667 582.6944 554.6666666666667 512 554.6666666666667zM298.6666666666667 426.6666666666668C298.6666666666667 544.4864 394.1794133333334 640 512 640C629.8197333333333 640 725.3333333333333 544.4864 725.3333333333333 426.6666666666668C725.3333333333333 308.8469333333335 629.8197333333333 213.3333333333334 512 213.3333333333334C394.1794133333334 213.3333333333334 298.6666666666667 308.8469333333335 298.6666666666667 426.6666666666668z" />
    <glyph glyph-name="awkward"
      unicode="&#xE044;"
      horiz-adv-x="1024" d="M512 896C299.9227733333334 896 128 724.0772266666667 128 512C128 299.9210666666667 299.9227733333334 128 512 128C724.0789333333333 128 896 299.9210666666667 896 512C896 724.0772266666667 724.0789333333333 896 512 896zM42.6666666666667 512C42.6666666666667 771.2055466666667 252.7944533333334 981.3333333333334 512 981.3333333333334C771.2042666666666 981.3333333333334 981.3333333333331 771.2055466666667 981.3333333333331 512C981.3333333333331 252.7957333333334 771.2042666666666 42.6666666666667 512 42.6666666666667C252.7944533333334 42.6666666666667 42.6666666666667 252.7957333333334 42.6666666666667 512zM256 640H426.6666666666667V554.6666666666667H256V640zM597.3333333333333 640H768V554.6666666666667H597.3333333333333V640zM682.6666666666666 512V398.2208000000001H597.3333333333333V512H682.6666666666666zM810.6666666666666 512V384H725.3333333333333V512H810.6666666666666z" />
    <glyph glyph-name="backtop-rectangle"
      unicode="&#xE045;"
      horiz-adv-x="1024" d="M85.3333333333333 938.6666666666666H938.6666666666666V85.3333333333334H85.3333333333333V938.6666666666666zM170.6666666666667 853.3333333333334V170.6666666666668H853.3333333333333V853.3333333333334H170.6666666666667zM746.6666666666666 682.6666666666667H277.3333333333333V768H746.6666666666666V682.6666666666667zM512 648.2086400000001L708.1045333333333 452.1045333333334L647.7653333333333 391.7653333333334L554.6666666666666 484.864L554.6666666666666 234.6666666666668H469.3333333333333L469.3333333333333 484.864L376.23552 391.7653333333334L315.8958933333334 452.1045333333334L512 648.2086400000001z" />
    <glyph glyph-name="backtop"
      unicode="&#xE046;"
      horiz-adv-x="1024" d="M170.6666666666667 853.3333333333334H853.3333333333333V768H170.6666666666667V853.3333333333334zM512 700.3396266666666L807.0058666666666 405.3333333333334L746.6666666666666 344.9941333333334L554.6666666666666 536.9941333333334V128H469.3333333333333V536.9941333333334L277.3333333333333 344.9941333333334L216.9937066666667 405.3333333333334L512 700.3396266666666z" />
    <glyph glyph-name="backup"
      unicode="&#xE047;"
      horiz-adv-x="1024" d="M512 853.3333333333334C387.4048 853.3333333333334 285.46176 756.2077866666667 277.7975466666667 633.56928L275.7124266666667 600.2082133333333L242.8224 594.2485333333334C153.2565333333333 578.0138666666667 85.3333333333333 499.5626666666667 85.3333333333333 405.3333333333334C85.3333333333333 299.2938666666668 171.29472 213.3333333333334 277.3333333333333 213.3333333333334H746.6666666666666C852.7061333333332 213.3333333333334 938.6666666666666 299.2938666666668 938.6666666666666 405.3333333333334C938.6666666666666 499.5626666666667 870.7413333333334 578.0138666666667 781.1797333333334 594.2485333333334L748.288 600.2082133333333L746.2016 633.56928C738.5386666666666 756.2077866666667 636.5952 853.3333333333334 512 853.3333333333334zM196.19712 670.5975466666666C221.0218666666667 822.6478933333333 352.9476266666666 938.6666666666666 512 938.6666666666666C671.0527999999999 938.6666666666666 802.9781333333333 822.6478933333333 827.8015999999999 670.5975466666666C941.3845333333334 635.8903466666667 1024 530.2954666666667 1024 405.3333333333334C1024 252.1642666666667 899.8314666666666 128 746.6666666666666 128H277.3333333333333C124.1664 128 0 252.1642666666667 0 405.3333333333334C0 530.2954666666667 82.6133333333333 635.8903466666667 196.19712 670.5975466666666zM512 721.67296L700.3392 533.3333333333334L640 472.9941333333334L554.6666666666666 558.3274666666667L554.6666666666666 298.6666666666668H469.3333333333333L469.3333333333333 558.3274666666667L384 472.9941333333334L323.6603733333334 533.3333333333334L512 721.67296z" />
    <glyph glyph-name="backward"
      unicode="&#xE048;"
      horiz-adv-x="1024" d="M480.0085333333333 838.9998933333334V540.3349333333333L778.6751999999999 838.9998933333334V184.9856L480.0085333333333 483.6522666666667V184.9856L153.0001066666667 511.9914666666667L480.0085333333333 838.9998933333334zM273.67936 511.9914666666667L394.6730666666666 391.0016000000001V632.9873066666667L273.67936 511.9914666666667zM572.3477333333333 511.9914666666667L693.3418666666666 391.0016000000001V632.9873066666667L572.3477333333333 511.9914666666667z" />
    <glyph glyph-name="bad-laugh"
      unicode="&#xE049;"
      horiz-adv-x="1024" d="M512 896C299.9227733333334 896 128 724.0772266666667 128 512C128 299.9210666666667 299.9227733333334 128 512 128C724.0789333333333 128 896 299.9210666666667 896 512C896 724.0772266666667 724.0789333333333 896 512 896zM42.6666666666667 512C42.6666666666667 771.2055466666667 252.7944533333334 981.3333333333334 512 981.3333333333334C771.2042666666666 981.3333333333334 981.3333333333331 771.2055466666667 981.3333333333331 512C981.3333333333331 252.7957333333334 771.2042666666666 42.6666666666667 512 42.6666666666667C252.7944533333334 42.6666666666667 42.6666666666667 252.7957333333334 42.6666666666667 512zM288.7995733333334 676.9506133333334L436.5994666666666 591.616L393.9345066666666 517.7173333333334L246.1329066666667 603.0493866666667L288.7995733333334 676.9506133333334zM777.9328 603.0493866666667L630.1312 517.7173333333334L587.4645333333333 591.616L735.2661333333333 676.9506133333334L777.9328 603.0493866666667zM298.6666666666667 469.3333333333334H725.3333333333333V426.6666666666668C725.3333333333333 308.8469333333335 629.8197333333333 213.3333333333334 512 213.3333333333334C394.1794133333334 213.3333333333334 298.6666666666667 308.8469333333335 298.6666666666667 426.6666666666668V469.3333333333334zM391.2836266666667 384C408.85504 334.2848000000002 456.2687999999999 298.6666666666668 512 298.6666666666668C567.7312 298.6666666666668 615.1466666666666 334.2848000000002 632.7167999999999 384H391.2836266666667z" />
    <glyph glyph-name="bamboo-shoot"
      unicode="&#xE04A;"
      horiz-adv-x="1024" d="M846.6346666666666 843.6117333333334C843.7504 843.1261866666666 840.7466666666666 842.6005333333334 837.6277333333334 842.0305066666667C804.5823999999999 835.9927466666667 758.4938666666667 825.0116266666666 702.0288 805.0581333333333C709.4442666666666 768.2030933333333 717.6576 727.6245333333334 724.6335999999999 693.2394666666667C728.5290666666666 674.0501333333334 732.0362666666666 656.7965866666667 734.7968000000001 643.2055466666667L784.5888 638.2263466666667C816.1749333333333 713.5633066666667 833.0581333333332 775.4269866666667 842.0778666666666 819.2904533333333C843.8997333333333 828.1408 845.4015999999999 836.2602666666667 846.6346666666666 843.6117333333334zM746.6879999999999 556.2581333333334L693.7514666666666 561.5530666666667L393.5778133333333 609.7395200000001L470.1824 167.6501333333334C603.4943999999999 311.3941333333335 690.2314666666666 444.5056000000001 746.6879999999999 556.2581333333334zM385.19808 158.2933333333334L311.0839466666667 586.0138666666667C253.78048 542.0288 193.91104 490.6666666666667 132.2948266666667 430.6816C154.1290666666667 390.0970666666667 197.7233066666667 322.2314666666666 261.4903466666667 258.4661333333334C304.0042666666667 215.9530666666667 348.3400533333334 182.4042666666667 385.19808 158.2933333333334zM456.2687999999999 686.10176L645.1669333333333 655.7768533333334C643.8442666666666 662.2826666666667 642.4533333333333 669.1438933333334 641.0069333333333 676.2722133333334C634.9738666666666 706.0078933333334 628.0064 740.4066133333333 621.4314666666667 773.0461866666667C571.4346666666667 751.0370133333333 515.9765333333332 722.6692266666666 456.2687999999999 686.10176zM938.4405333333334 935.4167466666667L937.6512 889.06496C937.6085333333332 887.8557866666667 937.5317333333334 886.19776 937.408 884.1036799999999C937.1562666666666 879.9159466666667 936.7082666666666 873.9844266666666 935.9104 866.4110933333334C934.3146666666667 851.2648533333333 931.3109333333334 829.5530666666667 925.6618666666666 802.1000533333333C914.368 747.1803733333334 892.5141333333332 669.344 850.2485333333334 575.1978666666666C784.8874666666667 429.6021333333333 670.9674666666666 245.5637333333334 472.6784 47.2746666666667L452.2538666666667 26.8501333333334L425.7024 38.2293333333334C385.8602666666667 55.3045333333333 289.7211733333333 109.5552 201.1502933333333 198.1269333333334C112.57984 286.6944000000001 58.3291733333333 382.8352 41.2540586666667 422.6773333333333L29.8749866666667 449.2288000000001L50.3010133333333 469.6533333333334C143.0045866666667 562.3594666666668 232.6173866666667 636.6455466666666 316.67968 696.1621333333334C437.7898666666667 781.9072 547.2170666666666 836.8832 637.5296 872.10752C714.7733333333333 902.2327466666666 777.9157333333333 917.86624 822.2890666666667 925.9741866666666C844.4757333333333 930.02752 861.9605333333334 932.1988266666668 874.1632 933.3610666666666C880.2687999999999 933.9421866666665 885.0474666666667 934.27072 888.4394666666667 934.4567466666668C890.1333333333333 934.54976 891.4816000000001 934.6069333333334 892.4714666666666 934.64192L938.4405333333334 935.4167466666667z" />
    <glyph glyph-name="banana"
      unicode="&#xE04B;"
      horiz-adv-x="1024" d="M746.1248 997.8541653333332V692.7424000000001C733.12 667.48288 714.9141333333333 638.8458666666668 681.92 613.9891200000001C645.1754666666666 586.3082666666667 586.2528 560.5162666666668 487.5648 554.5813333333333C378.6043733333334 548.0277333333333 288.7121066666666 603.66848 263.9249066666667 627.8587733333334C238.7208533333333 652.4565333333334 203.36128 649.3060266666666 180.2926933333333 630.56128C158.5130666666667 612.864 148.7914666666667 584.384 148.7914666666667 554.6581333333334C148.7914666666667 523.6053333333334 151.8254933333333 494.7626666666667 160.04992 468.3264C149.5364266666667 472.4010666666667 137.68064 474.4576000000001 125.1413333333333 472.6826666666667C108.7684266666667 470.3701333333333 95.54304 462.1184000000001 86.0736 451.6821333333334C68.5777066666667 432.4010666666667 63.4581333333333 405.9392000000001 63.4581333333333 383.9914666666667C63.4581333333333 203.1573333333335 278.82112 -32.7125333333333 631.8890666666666 87.6032L632.896 87.9488L633.8858666666666 88.3413333333333C822.6986666666667 163.4090666666666 917.8666666666666 278.8864000000001 957.6746666666666 396.8768C995.5626666666668 509.1797333333334 981.6576 618.7421866666667 959.4581333333334 689.3853866666667V926.7426133333335L746.1248 997.8541653333332zM373.5534933333334 399.9914666666667C310.6210133333333 419.9168 277.8824533333334 439.1466666666668 259.8144 460.1173333333334C244.4846933333334 477.9093333333334 235.7329066666667 501.7130666666667 234.3266133333333 542.5194666666666C287.07584 505.7578666666667 381.856 462.7370666666667 492.6848 469.4016C561.2501333333332 473.5232000000001 616.3199999999999 486.3786666666667 660.8170666666666 504.8533333333334C634.3679999999999 467.1274666666667 606.5536 440.9130666666668 578.5386666666666 423.2234666666667C518.3189333333332 385.1989333333334 449.5274666666667 381.8197333333334 373.5534933333334 399.9914666666667zM874.1248 865.2381866666667V675.7329066666667L876.3136 669.1643733333334C895.5519999999999 611.45216 908.5013333333332 518.0714666666668 876.8170666666666 424.1536000000001C845.8794666666665 332.4544 770.6154666666666 234.7989333333334 603.3535999999999 168.0341333333335C306.05696 67.2725333333333 152.9774933333333 260.9024 148.8763733333333 379.1530666666668C208.76928 351.6714666666667 276.1664 335.5605333333333 332.7953066666667 322.0224000000001C339.3770666666667 320.4480000000001 345.8133333333334 318.9077333333334 352.0750933333334 317.3930666666668C442.0992 295.5733333333333 537.3824 296.3157333333334 624.0981333333333 351.0698666666667C709.8026666666666 405.184 779.2384 507.1530666666667 829.5594666666666 670.0650666666668L831.4581333333333 676.2176000000001V879.4602666666667L874.1248 865.2381866666667z" />
    <glyph glyph-name="barbecue"
      unicode="&#xE04C;"
      horiz-adv-x="1024" d="M568.1493333333333 904.7168C613.4186666666667 949.9831466666666 686.8096 949.9831466666666 732.0746666666666 904.7168L788.2282666666666 848.5661866666667L857.2842666666667 917.6226133333334L917.6234666666666 857.2829866666666L848.5674666666666 788.2261333333333L904.7168 732.07552C949.9818666666666 686.8087466666667 949.9818666666666 613.4173866666667 904.7168 568.1493333333334L852.9237333333333 516.3562666666667C833.28 496.7125333333333 808.3370666666666 485.5936 782.6986666666667 482.9994666666666C780.1045333333333 457.3610666666667 768.9856 432.4181333333334 749.3376 412.7744L697.5488 360.9813333333334C677.9007999999999 341.3376000000001 652.9621333333333 330.2186666666667 627.3194666666666 327.6245333333334C624.7253333333333 301.9818666666668 613.6063999999999 277.0389333333333 593.9626666666666 257.3952L542.1696 205.6021333333333C496.9045333333333 160.3370666666667 423.5118933333333 160.3370666666667 378.2455466666667 205.6021333333333L322.0945066666667 261.7557333333333L253.03808 192.6997333333334L222.8680533333333 222.8693333333334C210.92608 234.8117333333334 191.5648 234.8117333333334 179.6228266666667 222.8693333333334C167.68128 210.9269333333334 167.68128 191.5648 179.6228266666667 179.6224000000001C188.17792 171.0677333333333 200.5981866666667 168.5802666666667 211.4564266666667 172.4032000000001L251.7009066666667 186.5770666666667L280.0448 106.0864L239.80032 91.9168C199.1415466666667 77.5978666666667 151.9278933333333 86.6389333333334 119.2832 119.2832000000001C74.0168533333333 164.5482666666667 74.0168533333333 237.9434666666666 119.2832 283.2085333333333C153.8961066666667 317.8197333333333 204.9536 325.9690666666668 247.3066666666667 307.648L261.7544533333334 322.0949333333333L205.60384 378.2442666666667C160.3374933333333 423.5136 160.3374933333333 496.9045333333333 205.60384 542.1696000000001L257.39648 593.9626666666667C277.0410666666667 613.6068266666667 301.9822933333333 624.7261866666668 327.6232533333333 627.3198933333333C330.2173866666667 652.9608533333334 341.3367466666667 677.9025066666667 360.9813333333333 697.5470933333334L412.7735466666666 749.3393066666667C432.4181333333334 768.9838933333333 457.3610666666667 780.1032533333333 482.9994666666666 782.6973866666667C485.5936 808.3383466666667 496.7125333333333 833.2795733333334 516.3605333333333 852.92416L568.1493333333333 904.7168zM576.6997333333334 749.3393066666667L749.3376 576.6997333333334C761.28 564.7573333333333 780.6421333333333 564.7573333333333 792.5845333333333 576.6997333333334L844.3775999999999 628.4906666666667C856.3199999999999 640.4322133333334 856.3199999999999 659.7939200000001 844.3775999999999 671.7354666666668L788.2282666666666 727.8865066666667L746.6666666666666 686.32704L686.3274666666666 746.6666666666667L727.8847999999999 788.2261333333333L671.7354666666666 844.3771733333333C659.7930666666666 856.31872 640.4309333333333 856.31872 628.4885333333333 844.3771733333333L576.6997333333334 792.5845333333334C564.7573333333332 780.64256 564.7573333333332 761.28128 576.6997333333334 749.3393066666667zM688.9984 516.3562666666667L516.3605333333333 688.99968C504.4181333333333 700.9416533333333 485.0559999999999 700.9416533333333 473.1136 688.99968L421.32096 637.2074666666667C409.3794133333334 625.2654933333333 409.3794133333334 605.9037866666667 421.32096 593.9626666666667L593.9626666666666 421.3205333333334C605.9050666666667 409.3781333333334 625.2672 409.3781333333334 637.2053333333333 421.3205333333334L688.9984 473.1136C700.9408 485.056 700.9408 504.4181333333333 688.9984 516.3562666666667zM533.6234666666667 360.9813333333334L360.9813333333333 533.6234666666667C349.03936 545.5658666666667 329.67808 545.5658666666667 317.7361066666666 533.6234666666667L265.9438933333334 481.8304000000001C254.00192 469.888 254.00192 450.5258666666667 265.9438933333334 438.5834666666667L438.5834666666666 265.9456C450.5258666666667 254.0032 469.888 254.0032 481.8303999999999 265.9456L533.6234666666667 317.7344000000001C545.5658666666666 329.6768000000001 545.5658666666666 349.0389333333334 533.6234666666667 360.9813333333334z" />
    <glyph glyph-name="barcode-1"
      unicode="&#xE04D;"
      horiz-adv-x="1024" d="M85.3333333333333 938.6666666666666H384V853.3333333333334H170.6666666666667V640H85.3333333333333V938.6666666666666zM640 938.6666666666666H938.6666666666666V640H853.3333333333333V853.3333333333334H640V938.6666666666666zM384 682.6666666666667L384 341.3333333333334H298.6666666666667L298.6666666666667 682.6666666666667H384zM554.6666666666666 682.6666666666667V341.3333333333334H469.3333333333333V682.6666666666667H554.6666666666666zM725.3333333333333 682.6666666666667V341.3333333333334H640V682.6666666666667H725.3333333333333zM170.6666666666667 384V170.6666666666668H384V85.3333333333334H85.3333333333333V384H170.6666666666667zM938.6666666666666 384V85.3333333333334H640V170.6666666666668H853.3333333333333V384H938.6666666666666z" />
    <glyph glyph-name="barcode"
      unicode="&#xE04E;"
      horiz-adv-x="1024" d="M85.3333333333333 938.6666666666666H213.3333333333333V128H85.3333333333333V938.6666666666666zM373.3333333333333 938.6666666666666L373.3333333333333 128H288L288 938.6666666666666L373.3333333333333 938.6666666666666zM448 938.6666666666666H576V128H448V938.6666666666666zM736 938.6666666666666L736 128H650.6666666666666L650.6666666666666 938.6666666666666L736 938.6666666666666zM810.6666666666666 938.6666666666666H938.6666666666666V128H810.6666666666666V938.6666666666666z" />
    <glyph glyph-name="base-station"
      unicode="&#xE04F;"
      horiz-adv-x="1024" d="M270.6824533333334 856.3374933333333L240.5128533333333 826.1674666666667C90.5514666666667 676.20608 90.5514666666667 433.0709333333334 240.5128533333333 283.1104000000001L270.6824533333334 252.9408000000001L210.3428266666667 192.6016L180.1728 222.7712C-3.1131776 406.0544 -3.1131776 703.2213333333334 180.1728 886.5070933333334L210.3428266666667 916.67712L270.6824533333334 856.3374933333333zM813.6746666666666 916.67712L843.8442666666666 886.5070933333334C1027.1317333333332 703.2213333333334 1027.1317333333332 406.0544 843.8442666666666 222.7712L813.6746666666666 192.6016L753.3354666666667 252.9408000000001L783.5050666666666 283.1104000000001C933.4656 433.0709333333334 933.4656 676.20608 783.5050666666666 826.1674666666667L753.3354666666667 856.3374933333333L813.6746666666666 916.67712zM406.4324266666667 720.5870933333333L376.2628266666667 690.4174933333334C301.2821333333333 615.4368000000001 301.2821333333333 493.8709333333334 376.2628266666667 418.8885333333334L406.4324266666667 388.7189333333334L346.0928 328.3797333333335L315.9227733333334 358.5493333333334C207.61728 466.8544000000001 207.61728 642.4516266666667 315.9227733333334 750.75712L346.0928 780.9271466666667L406.4324266666667 720.5870933333333zM677.9264 780.9271466666667L708.096 750.75712C816.4010666666666 642.4516266666667 816.4010666666666 466.8544000000001 708.096 358.5493333333334L677.9264 328.3797333333335L617.5871999999999 388.7189333333334L647.7568 418.8885333333334C722.7349333333333 493.8709333333334 722.7349333333333 615.4368000000001 647.7568 690.4174933333334L617.5871999999999 720.5870933333333L677.9264 780.9271466666667zM426.6752 554.6709333333333C426.6752 601.7988266666667 464.8832 640.0038400000001 512.0085333333333 640.0038400000001C559.1381333333333 640.0038400000001 597.3418666666666 601.7988266666667 597.3418666666666 554.6709333333333C597.3418666666666 523.0848000000001 580.1813333333333 495.5093333333334 554.6751999999999 480.7552000000001V42.6709333333333H469.3418666666666V480.7552000000001C443.8357333333334 495.5093333333334 426.6752 523.0848000000001 426.6752 554.6709333333333z" />
    <glyph glyph-name="battery-add"
      unicode="&#xE050;"
      horiz-adv-x="1024" d="M341.3333333333333 1002.6666666666666H682.6666666666666V896H896V21.3333333333334H128V896H341.3333333333333V1002.6666666666666zM426.6666666666667 917.3333333333334V810.6666666666667H213.3333333333333V106.6666666666667H810.6666666666666V810.6666666666667H597.3333333333333V917.3333333333334H426.6666666666667zM554.6666666666666 618.6666666666667V490.6666666666667H682.6666666666666V405.3333333333334H554.6666666666666V277.3333333333334H469.3333333333333V405.3333333333334H341.3333333333333V490.6666666666667H469.3333333333333V618.6666666666667H554.6666666666666z" />
    <glyph glyph-name="battery-charging"
      unicode="&#xE051;"
      horiz-adv-x="1024" d="M528.0341333333333 803.3083733333333L375.0212266666666 554.6666666666667H631.0229333333333L397.9758933333333 175.9658666666667L325.3009066666667 220.6890666666667L478.3104 469.3333333333334H222.3121066666667L455.3557333333333 848.0311466666667L528.0341333333333 803.3083733333333zM0 810.6658133333333H320V725.33248H85.3333333333333V298.6666666666668H256V213.3333333333334H0V810.6658133333333zM597.3333333333333 810.6658133333333H896V213.3333333333334H554.6666666666666V298.6666666666668H810.6666666666666V725.33248H597.3333333333333V810.6658133333333zM1024 639.9991466666668V384H938.6666666666666V639.9991466666668H1024z" />
    <glyph glyph-name="battery-low"
      unicode="&#xE052;"
      horiz-adv-x="1024" d="M0 810.6666666666667H896V213.3333333333334H0V810.6666666666667zM85.3333333333333 725.3333333333334V298.6666666666668H810.6666666666666V725.3333333333334H85.3333333333333zM256 640V384H170.6666666666667V640H256zM1024 640V384H938.6666666666666V640H1024z" />
    <glyph glyph-name="battery"
      unicode="&#xE053;"
      horiz-adv-x="1024" d="M0 810.6666666666667H896V213.3333333333334H0V810.6666666666667zM85.3333333333333 725.3333333333334V298.6666666666668H810.6666666666666V725.3333333333334H85.3333333333333zM1024 640V384H938.6666666666666V640H1024z" />
    </font>
</defs>
</svg>
