<svg width="122" height="32" viewBox="0 0 122 32" fill="none" xmlns="http://www.w3.org/2000/svg">
                <g clip-path="url(#clip0_16025_26913)">
                  <path
                    d="M42.1876 8.78706H37.2302L34.1354 26.2045H30.52L33.5916 8.78706H28.6111L29.1491 5.79641H42.7256L42.1876 8.78706Z"
                    fill="currentColor"
                  ></path>
                  <path
                    d="M58.4307 10.9505C58.4187 12.1155 58.3026 13.277 58.0837 14.4213L57.5052 17.8458C56.2789 24.8278 54.3815 26.2045 48.9787 26.2045H40.6777L44.2642 5.80798H51.3504C56.4929 5.80798 58.4307 7.09795 58.4307 10.9505ZM54.8211 11.4943C54.8211 9.18041 53.7163 8.79863 50.8066 8.79863H47.3358L44.8253 23.2139H48.2498C52.299 23.2139 53.1262 22.4041 53.9072 17.8516L54.4856 14.4271C54.6807 13.4608 54.793 12.4796 54.8211 11.4943Z"
                    fill="currentColor"
                  ></path>
                  <path
                    d="M72.2269 13.756C72.2256 14.1538 72.1889 14.5507 72.117 14.9419L71.7352 17.0706C71.3071 19.4655 70.4163 20.3042 68.1777 20.3042H62.26L62.1212 21.1372C62.047 21.5188 62.0025 21.9056 61.9881 22.2941C61.9881 23.237 62.474 23.4511 64.0359 23.4511H69.4503L68.3454 26.1756H63.388C59.9172 26.1756 58.6504 25.2848 58.6504 23.104C58.664 22.4716 58.7259 21.8412 58.8355 21.2182L59.8883 15.1791C60.5362 11.4653 62.098 10.7076 66.0547 10.7076H67.8884C70.7171 10.7365 72.2269 11.4943 72.2269 13.756ZM68.8602 14.242C68.8602 13.5941 68.4553 13.4321 67.2174 13.4321H65.3027C64.0648 13.4321 63.469 13.5941 63.174 15.208L62.7459 17.6896H67.3215C67.4654 17.7123 67.6125 17.7034 67.7526 17.6634C67.8927 17.6234 68.0223 17.5533 68.1325 17.458C68.2427 17.3627 68.3307 17.2445 68.3905 17.1116C68.4502 16.9788 68.4803 16.8345 68.4785 16.6888L68.7735 14.9535C68.8153 14.7185 68.8386 14.4806 68.8429 14.242H68.8602Z"
                    fill="currentColor"
                  ></path>
                  <path
                    d="M72.4121 23.48H78.7752C79.828 23.48 80.0189 23.318 80.204 22.271L80.4469 20.8422C80.4911 20.6385 80.5182 20.4315 80.5279 20.2233C80.5279 19.8704 80.337 19.8183 79.7181 19.8183H76.6233C74.2516 19.8183 73.4707 19.3613 73.4707 17.8226C73.496 17.0722 73.585 16.3252 73.7368 15.5898L73.9566 14.375C74.4946 11.2744 75.2986 10.9042 78.3471 10.9042H85.1614L84.0045 13.623H78.324C77.2712 13.623 77.0803 13.785 76.8952 14.8378L76.6812 16.0468C76.6341 16.25 76.607 16.4573 76.6002 16.6657C76.6002 17.0186 76.7853 17.0706 77.4042 17.0706H80.6378C83.0095 17.0706 83.7905 17.5276 83.7905 19.0663C83.7648 19.8187 83.6758 20.5676 83.5244 21.305L83.2236 22.9999C82.7434 25.7996 81.9336 26.1814 78.7521 26.1814H72.8922L72.4121 23.48Z"
                    fill="currentColor"
                  ></path>
                  <path
                    d="M87.9843 10.9274H91.3278L88.6611 26.2045H85.3176L87.9843 10.9274ZM88.9851 4.97499H92.4559L91.8369 8.44576H88.3661L88.9851 4.97499Z"
                    fill="currentColor"
                  ></path>
                  <path
                    d="M105.986 14.2651C105.946 15.2371 105.828 16.2043 105.633 17.1574L103.961 26.6037C103.313 30.2711 101.729 31 98.6279 31H92.8086L92.3227 28.2465H97.8759C99.9758 28.2465 100.381 28.0903 100.768 25.7186L100.953 24.6658H97.0777C93.6532 24.6658 92.2244 23.7229 92.2244 21.1372C92.2638 20.1652 92.3818 19.1979 92.5772 18.2449L92.9821 16.0063C93.7631 11.6967 94.758 10.7249 99.2585 10.7249H101.115C104.557 10.7365 105.986 11.6794 105.986 14.2651ZM101.457 21.9471L102.29 17.1227C102.462 16.3618 102.571 15.5878 102.614 14.8088C102.614 13.6519 102.035 13.4379 100.3 13.4379H99.0907C97.043 13.4379 96.719 14.0568 96.3662 16.0236L95.9612 18.2623C95.7993 19.025 95.691 19.7982 95.6373 20.5761C95.6373 21.733 96.2158 21.9529 97.9859 21.9529L101.457 21.9471Z"
                    fill="currentColor"
                  ></path>
                  <path
                    d="M121.367 13.6751C121.306 14.7796 121.161 15.878 120.934 16.9607L119.32 26.2161H115.976L117.619 16.9607C117.766 16.2594 117.857 15.5476 117.891 14.832C117.891 13.8891 117.486 13.6751 116.219 13.6751H112.286L110.105 26.1814H106.767L109.434 10.9042H116.855C120.286 10.9274 121.367 11.7314 121.367 13.6751Z"
                    fill="currentColor"
                  ></path>
                  <path
                    d="M7.97158 26.1814H3.28026C3.20254 26.1813 3.12575 26.1646 3.05505 26.1323C2.98435 26.1001 2.92139 26.053 2.87041 25.9944C2.81943 25.9357 2.78162 25.8668 2.75952 25.7923C2.73741 25.7178 2.73154 25.6394 2.74229 25.5625L3.65626 20.4026H9.44088L8.49798 25.7476C8.47291 25.8691 8.40703 25.9784 8.31127 26.0573C8.21552 26.1362 8.09566 26.18 7.97158 26.1814V26.1814Z"
                    fill="#009BFF"
                  ></path>
                  <path
                    d="M21.1779 8.78706H5.69824L6.71634 3.00244H21.9877C22.0714 2.99445 22.1557 3.00616 22.234 3.03663C22.3123 3.06709 22.3823 3.11547 22.4386 3.17789C22.4948 3.2403 22.5356 3.31502 22.5578 3.39605C22.58 3.47709 22.5828 3.56219 22.5662 3.64453L21.7101 8.35321C21.6869 8.47672 21.6207 8.58803 21.5233 8.66744C21.4259 8.74684 21.3035 8.78922 21.1779 8.78706Z"
                    fill="url(#paint0_linear_16025_26913)"
                  ></path>
                  <path
                    d="M5.69814 8.78706H0.549824C0.471061 8.78794 0.393048 8.77169 0.321181 8.73945C0.249315 8.70721 0.185311 8.65974 0.133598 8.60033C0.081885 8.54091 0.0436979 8.47097 0.0216786 8.39534C-0.000340748 8.31972 -0.00566652 8.24021 0.00606973 8.16232L0.84484 3.44785C0.867754 3.32323 0.933469 3.21053 1.03064 3.12921C1.1278 3.04788 1.25032 3.00304 1.37702 3.00244H6.71623L5.69814 8.78706Z"
                    fill="#0064FF"
                  ></path>
                  <path
                    d="M9.44658 20.3852H3.65039L5.69815 8.79863H11.4943L9.44658 20.3852Z"
                    fill="url(#paint1_linear_16025_26913)"
                  ></path>
                </g>
                <defs>
                  <linearGradient
                    id="paint0_linear_16025_26913"
                    x1="6.19468"
                    y1="5.90053"
                    x2="21.6312"
                    y2="8.6791"
                    gradientUnits="userSpaceOnUse"
                  >
                    <stop offset="0.03" stop-color="#E9FFFF"></stop>
                    <stop offset="0.17" stop-color="#C4FAC9"></stop>
                    <stop offset="0.33" stop-color="#A0F694"></stop>
                    <stop offset="0.48" stop-color="#82F269"></stop>
                    <stop offset="0.63" stop-color="#6AEF47"></stop>
                    <stop offset="0.76" stop-color="#5AED2F"></stop>
                    <stop offset="0.89" stop-color="#4FEB20"></stop>
                    <stop offset="1" stop-color="#4CEB1B"></stop>
                  </linearGradient>
                  <linearGradient
                    id="paint1_linear_16025_26913"
                    x1="8.58918"
                    y1="8.37635"
                    x2="8.69869"
                    y2="19.278"
                    gradientUnits="userSpaceOnUse"
                  >
                    <stop stop-color="#009BFF"></stop>
                    <stop offset="0.35" stop-color="#0081FE"></stop>
                    <stop offset="0.75" stop-color="#006AFD"></stop>
                    <stop offset="1" stop-color="#0062FD"></stop>
                  </linearGradient>
                  <clipPath id="clip0_16025_26913">
                    <rect width="121.367" height="32" fill="white"></rect>
                  </clipPath>
                </defs>
              </svg>